<?xml version="1.0" encoding="UTF-8" standalone="no"?>
<svg
   xmlns:dc="http://purl.org/dc/elements/1.1/"
   xmlns:cc="http://creativecommons.org/ns#"
   xmlns:rdf="http://www.w3.org/1999/02/22-rdf-syntax-ns#"
   xmlns:svg="http://www.w3.org/2000/svg"
   xmlns="http://www.w3.org/2000/svg"
   xmlns:sodipodi="http://sodipodi.sourceforge.net/DTD/sodipodi-0.dtd"
   xmlns:inkscape="http://www.inkscape.org/namespaces/inkscape"
   sodipodi:docname="ama.svg"
   inkscape:version="1.0 (4035a4f, 2020-05-01)"
   id="svg8"
   version="1.1"
   viewBox="0 0 8.4666665 8.4666659"
   height="32"
   width="32">
  <defs
     id="defs2" />
  <sodipodi:namedview
     inkscape:window-maximized="0"
     inkscape:window-y="23"
     inkscape:window-x="0"
     inkscape:window-height="855"
     inkscape:window-width="1379"
     units="px"
     inkscape:pagecheckerboard="true"
     showgrid="false"
     inkscape:document-rotation="0"
     inkscape:current-layer="layer2"
     inkscape:document-units="mm"
     inkscape:cy="26.470106"
     inkscape:cx="15.315366"
     inkscape:zoom="10.564583"
     inkscape:pageshadow="2"
     inkscape:pageopacity="0.0"
     borderopacity="1.0"
     bordercolor="#666666"
     pagecolor="#ffffff"
     id="base" />
  <metadata
     id="metadata5">
    <rdf:RDF>
      <cc:Work
         rdf:about="">
        <dc:format>image/svg+xml</dc:format>
        <dc:type
           rdf:resource="http://purl.org/dc/dcmitype/StillImage" />
        <dc:title></dc:title>
      </cc:Work>
    </rdf:RDF>
  </metadata>
  <g
     sodipodi:insensitive="true"
     style="display:none"
     id="layer1"
     inkscape:groupmode="layer"
     inkscape:label="Layer 1">
    <g
       transform="scale(0.26458333)"
       id="g1330">
      <path
         d="M 0,0 H 32 V 32 H 0 Z m 1,5 v 5 h 2 v 8 H 1 v 1 h 2 v 1 H 1 v 1 h 12 v -1 h 4 v -1 h -4 v 1 H 9 v -1 h 3 v -1 h 5 V 13 H 16 V 12 H 15 V 11 H 14 V 10 H 13 V 9 H 12 V 8 H 10 V 7 H 8 V 6 H 5 V 5 Z m 17,1 v 25 h 5 V 6 Z m 6,0 v 25 h 7 V 21 H 27 V 6 Z M 14,21 v 1 h 1 v 2 h 1 v 3 h 1 V 21 Z M 28,8 v 5 h 1 v -1 h 1 v -1 h 1 V 8 Z"
         fill-rule="nonzero"
         fill="#000000"
         id="path1289" />
      <path
         d="m 1,5 h 4 v 1 h 3 v 1 h 2 v 1 h 2 v 1 h 1 v 1 h 1 v 1 h 1 v 1 h 1 v 1 h 1 v 5 H 12 V 17 H 11 V 16 H 10 V 15 H 9 v 3 h 3 v 1 H 9 v 1 h 4 v 1 H 1 V 20 H 3 V 19 H 1 V 18 H 3 V 10 H 1 Z m 3,7 v 6 H 8 V 13 H 6 v -1 z m 0,7 v 1 h 4 v -1 z"
         fill-rule="nonzero"
         fill="#ffffff"
         id="path1291" />
      <path
         d="m 18,6 h 5 v 25 h -5 z m 2,6 v 1 h -1 v 5 h 3 v -5 h -1 v -1 z"
         fill-rule="nonzero"
         fill="#ffffff"
         id="path1293" />
      <path
         d="m 24,6 h 3 v 15 h 4 v 10 h -7 z"
         fill="#ffffff"
         id="path1295" />
      <path
         d="m 28,8 h 3 v 3 h -1 v 1 h -1 v 1 h -1 z"
         fill="#ffffff"
         id="path1297" />
      <path
         d="m 4,12 h 2 v 1 h 2 v 5 H 4 Z"
         fill="#000000"
         id="path1299" />
      <path
         d="m 20,12 h 1 v 1 h 1 v 5 h -3 v -5 h 1 z"
         fill="#000000"
         id="path1301" />
      <path
         d="m 9,15 h 1 v 1 h 1 v 1 h 1 v 1 H 9 Z"
         fill="#000000"
         id="path1303" />
      <path
         d="m 4,19 h 4 v 1 H 4 Z"
         fill="#000000"
         id="path1305" />
      <path
         d="m 13,19 h 4 v 1 h -4 z"
         fill="#ffffff"
         id="path1307" />
      <path
         d="m 14,21 h 3 v 6 h -1 v -3 h -1 v -2 h -1 z"
         fill="#ffffff"
         id="path1309" />
    </g>
  </g>
  <g
     inkscape:label="Layer 2"
     id="layer2"
     inkscape:groupmode="layer">
    <path
       transform="scale(0.26458333)"
       d="M 0 0 L 0 5 L 0 10 L 0 18 L 0.044921875 18 L 0.044921875 21 L 0 21 L 0 32 L 14 32 L 18 32 L 32 32 L 32 31 L 32 21 L 32 13 L 32 8 L 32 5 L 32 0 L 0 0 z M 1 5 L 5 5 L 5 6 L 8 6 L 8 7 L 10 7 L 10 8 L 12 8 L 12 9 L 13 9 L 13 10 L 14 10 L 14 11 L 15 11 L 15 12 L 16 12 L 16 13 L 17 13 L 17 18 L 12 18 L 12 19 L 9 19 L 9 20 L 13 20 L 13 19 L 17 19 L 17 20 L 13 20 L 13 21 L 1.0449219 21 L 1.0449219 20 L 3 20 L 3 19 L 1.0449219 19 L 1.0449219 18 L 3 18 L 3 10 L 1 10 L 1 5 z M 12 18 L 12 17 L 11 17 L 11 16 L 10 16 L 10 15 L 9 15 L 9 18 L 10 18 L 11 18 L 12 18 z M 17 6 L 23 6 L 23 31 L 18 31 L 18 27 L 18 6.0058594 L 17 6.0058594 L 17 6 z M 24 6 L 27 6 L 27 8 L 27 13 L 27 21 L 31 21 L 31 31 L 24 31 L 24 6 z M 28 8 L 31 8 L 31 11 L 30 11 L 30 12 L 29 12 L 29 13 L 28 13 L 28 8 z M 4 12 L 4 13 L 4 18 L 8 18 L 8 13 L 6 13 L 6 12 L 4 12 z M 20 12 L 20 13 L 19 13 L 19 18 L 22 18 L 22 13 L 21 13 L 21 12 L 20 12 z M 4 19 L 4 20 L 8 20 L 8 19 L 4 19 z M 14 21 L 17 21 L 17 27 L 16 27 L 16 24 L 15 24 L 15 22 L 14 22 L 14 21 z "
       style="fill:#000000;stroke-width:0.999999"
       id="rect1332" />
  </g>
</svg>
