<?xml version="1.0" encoding="UTF-8" standalone="no"?>
<svg
   xmlns:dc="http://purl.org/dc/elements/1.1/"
   xmlns:cc="http://creativecommons.org/ns#"
   xmlns:rdf="http://www.w3.org/1999/02/22-rdf-syntax-ns#"
   xmlns:svg="http://www.w3.org/2000/svg"
   xmlns="http://www.w3.org/2000/svg"
   xmlns:sodipodi="http://sodipodi.sourceforge.net/DTD/sodipodi-0.dtd"
   xmlns:inkscape="http://www.inkscape.org/namespaces/inkscape"
   sodipodi:docname="bill.svg"
   inkscape:version="1.0 (4035a4f, 2020-05-01)"
   id="svg8"
   version="1.1"
   viewBox="0 0 8.4666665 8.4666659"
   height="32"
   width="32">
  <defs
     id="defs2" />
  <sodipodi:namedview
     inkscape:window-maximized="0"
     inkscape:window-y="23"
     inkscape:window-x="0"
     inkscape:window-height="855"
     inkscape:window-width="1379"
     units="px"
     inkscape:pagecheckerboard="true"
     showgrid="false"
     inkscape:document-rotation="0"
     inkscape:current-layer="layer2"
     inkscape:document-units="mm"
     inkscape:cy="16.050713"
     inkscape:cx="14.427892"
     inkscape:zoom="19.71875"
     inkscape:pageshadow="2"
     inkscape:pageopacity="0.0"
     borderopacity="1.0"
     bordercolor="#666666"
     pagecolor="#ffffff"
     id="base" />
  <metadata
     id="metadata5">
    <rdf:RDF>
      <cc:Work
         rdf:about="">
        <dc:format>image/svg+xml</dc:format>
        <dc:type
           rdf:resource="http://purl.org/dc/dcmitype/StillImage" />
        <dc:title></dc:title>
      </cc:Work>
    </rdf:RDF>
  </metadata>
  <g
     sodipodi:insensitive="true"
     style="display:none"
     id="layer1"
     inkscape:groupmode="layer"
     inkscape:label="Layer 1">
    <g
       transform="scale(0.26458333)"
       id="g341">
      <path
         d="M 0,0 H 32 V 8 H 31 V 6 H 29 V 5 H 28 V 4 H 27 V 3 H 25 V 2 H 22 V 1 H 10 V 2 H 7 V 3 H 5 V 4 H 4 V 5 H 2 V 6 H 1 V 8 H 0 Z"
         fill="#ffffff"
         id="path261" />
      <path
         d="m 10,1 h 12 v 1 h 3 v 1 h 2 v 1 h 1 v 1 h 1 v 1 h 2 v 2 h 1 v 7 h -1 v 1 h -1 v 1 h -1 v 1 h -1 v 2 h -1 v 5 h -1 v 1 h -1 v 1 h -1 v 1 h -1 v 1 h -3 v 1 H 12 V 29 H 9 V 28 H 8 V 27 H 7 V 26 H 6 V 25 H 5 V 20 H 4 V 19 H 3 V 17 H 2 V 16 H 1 V 15 H 0 V 8 H 1 V 6 H 2 V 5 H 4 V 4 H 5 V 3 H 7 V 2 h 3 z M 7,5 V 8 H 8 V 5 Z m 1,3 v 3 H 9 V 8 Z m 5,0 v 4 h 1 v 1 h 1 v 1 h 2 v -1 h 1 v -1 h 1 V 8 Z m -4,3 v 2 h 1 v -2 z m -7,1 v 1 h 1 v -1 z m 1,1 v 1 h 1 v -1 z m 1,1 v 1 h 2 v -1 z m 6,2 v 1 H 5 v 1 h 5 V 17 H 22 V 16 Z M 24,5 v 3 h -1 v 3 h -1 v 2 h 1 v -2 h 1 V 8 h 1 V 5 Z M 6,19 v 1 h 20 v -1 z m 20,-5 v 1 h 2 v -1 z m 3,-2 v 1 h -1 v 1 h 1 v -1 h 1 v -1 z m -7,5 v 1 h 5 v -1 z m 2,5 v 2 h -1 v 1 h -1 v 1 h -1 v 1 h 1 v -1 h 1 v -1 h 1 v -1 h 1 v -2 z"
         fill-rule="nonzero"
         fill="#000000"
         id="path263" />
      <path
         d="M 7,5 H 8 V 8 H 7 Z"
         fill="#ffffff"
         id="path265" />
      <path
         d="m 24,5 h 1 v 3 h -1 z"
         fill="#ffffff"
         id="path267" />
      <path
         d="m 8,8 h 1 v 3 H 8 Z"
         fill="#ffffff"
         id="path269" />
      <path
         d="m 13,8 h 6 v 4 h -1 v 1 h -1 v 1 h -2 v -1 h -1 v -1 h -1 z"
         fill="#ffffff"
         id="path271" />
      <path
         d="m 23,8 h 1 v 3 h -1 z"
         fill="#ffffff"
         id="path273" />
      <path
         d="m 9,11 h 1 v 2 H 9 Z"
         fill="#ffffff"
         id="path275" />
      <path
         d="m 22,11 h 1 v 2 h -1 z"
         fill="#ffffff"
         id="path277" />
      <path
         d="m 2,12 h 1 v 1 H 2 Z"
         fill="#ffffff"
         id="path279" />
      <path
         d="m 29,12 h 1 v 1 h -1 z"
         fill="#ffffff"
         id="path281" />
      <path
         d="m 3,13 h 1 v 1 H 3 Z"
         fill="#ffffff"
         id="path283" />
      <path
         d="m 28,13 h 1 v 1 h -1 z"
         fill="#ffffff"
         id="path285" />
      <path
         d="m 4,14 h 2 v 1 H 4 Z"
         fill="#ffffff"
         id="path287" />
      <path
         d="m 26,14 h 2 v 1 h -2 z"
         fill="#ffffff"
         id="path289" />
      <path
         d="m 0,15 h 1 v 1 h 1 v 1 h 1 v 2 h 1 v 1 h 1 v 5 h 1 v 1 h 1 v 1 h 1 v 1 h 1 v 1 h 3 v 1 h 8 v -1 h 3 v -1 h 1 v -1 h 1 v -1 h 1 v -1 h 1 v -5 h 1 v -2 h 1 v -1 h 1 v -1 h 1 v -1 h 1 V 32 H 0 Z"
         fill="#ffffff"
         id="path291" />
      <path
         d="m 10,16 h 12 v 1 H 10 Z"
         fill="#ffffff"
         id="path293" />
      <path
         d="m 5,17 h 5 v 1 H 5 Z"
         fill="#ffffff"
         id="path295" />
      <path
         d="m 22,17 h 5 v 1 h -5 z"
         fill="#ffffff"
         id="path297" />
      <path
         d="m 6,19 h 20 v 1 H 6 Z"
         fill="#ffffff"
         id="path299" />
      <path
         d="m 24,22 h 1 v 2 h -1 z"
         fill="#ffffff"
         id="path301" />
      <path
         d="m 23,24 h 1 v 1 h -1 z"
         fill="#ffffff"
         id="path303" />
      <path
         d="m 22,25 h 1 v 1 h -1 z"
         fill="#ffffff"
         id="path305" />
      <path
         d="m 21,26 h 1 v 1 h -1 z"
         fill="#ffffff"
         id="path307" />
    </g>
  </g>
  <g
     inkscape:label="Layer 2"
     id="layer2"
     inkscape:groupmode="layer">
    <path
       transform="scale(0.26458333)"
       d="M 10 1 L 10 2 L 7 2 L 7 3 L 5 3 L 5 4 L 4 4 L 4 5 L 3 5 L 3 6 L 1 6 L 1 8 L 0 8 L 0 15 L 1 15 L 1 16 L 2 16 L 2 17 L 3 17 L 3 18 L 4 18 L 4 20 L 5 20 L 5 25 L 6 25 L 6 26 L 7 26 L 7 27 L 8 27 L 8 28 L 9 28 L 9 29 L 10 29 L 12 29 L 12 30 L 20 30 L 20 29 L 22 29 L 23 29 L 23 28 L 24 28 L 24 27 L 25 27 L 25 26 L 26 26 L 26 25 L 27 25 L 27 20 L 28 20 L 28 18 L 29 18 L 29 17 L 30 17 L 30 16 L 31 16 L 31 15 L 32 15 L 32 8 L 31 8 L 31 6 L 29 6 L 29 5 L 28 5 L 28 4 L 27 4 L 27 3 L 25 3 L 25 2 L 22 2 L 22 1 L 10 1 z M 7 5 L 8 5 L 8 8 L 9 8 L 9 11 L 10 11 L 10 13 L 9 13 L 9 11 L 8 11 L 8 8 L 7 8 L 7 5 z M 24 5 L 25 5 L 25 8 L 24 8 L 24 11 L 23 11 L 23 13 L 22 13 L 22 11 L 23 11 L 23 8 L 24 8 L 24 5 z M 13 8 L 19 8 L 19 12 L 18 12 L 18 13 L 17 13 L 17 14 L 15 14 L 15 13 L 14 13 L 14 12 L 13 12 L 13 8 z M 2 12 L 3 12 L 3 13 L 4 13 L 4 14 L 6 14 L 6 15 L 4 15 L 4 14 L 3 14 L 3 13 L 2 13 L 2 12 z M 29 12 L 30 12 L 30 13 L 29 13 L 29 14 L 28 14 L 28 15 L 26 15 L 26 14 L 28 14 L 28 13 L 29 13 L 29 12 z M 10 16 L 22 16 L 22 17 L 27 17 L 27 18 L 22 18 L 22 17 L 10 17 L 10 18 L 5 18 L 5 17 L 10 17 L 10 16 z M 6 19 L 26 19 L 26 20 L 6 20 L 6 19 z M 24 22 L 25 22 L 25 24 L 24 24 L 24 25 L 23 25 L 23 26 L 22 26 L 22 27 L 21 27 L 21 26 L 22 26 L 22 25 L 23 25 L 23 24 L 24 24 L 24 22 z "
       style="fill:#000000;stroke-width:1.69586"
       id="rect505-2" />
  </g>
</svg>
