<?xml version="1.0" encoding="UTF-8" standalone="no"?>
<svg
   xmlns:dc="http://purl.org/dc/elements/1.1/"
   xmlns:cc="http://creativecommons.org/ns#"
   xmlns:rdf="http://www.w3.org/1999/02/22-rdf-syntax-ns#"
   xmlns:svg="http://www.w3.org/2000/svg"
   xmlns="http://www.w3.org/2000/svg"
   xmlns:sodipodi="http://sodipodi.sourceforge.net/DTD/sodipodi-0.dtd"
   xmlns:inkscape="http://www.inkscape.org/namespaces/inkscape"
   sodipodi:docname="caution.svg"
   inkscape:version="1.0 (4035a4f, 2020-05-01)"
   id="svg8"
   version="1.1"
   viewBox="0 0 8.4666665 8.4666659"
   height="32"
   width="32">
  <defs
     id="defs2" />
  <sodipodi:namedview
     inkscape:window-maximized="0"
     inkscape:window-y="23"
     inkscape:window-x="0"
     inkscape:window-height="855"
     inkscape:window-width="1379"
     units="px"
     inkscape:pagecheckerboard="true"
     showgrid="false"
     inkscape:document-rotation="0"
     inkscape:current-layer="layer2"
     inkscape:document-units="mm"
     inkscape:cy="11.063222"
     inkscape:cx="7.7635304"
     inkscape:zoom="10.460024"
     inkscape:pageshadow="2"
     inkscape:pageopacity="0.0"
     borderopacity="1.0"
     bordercolor="#666666"
     pagecolor="#ffffff"
     id="base" />
  <metadata
     id="metadata5">
    <rdf:RDF>
      <cc:Work
         rdf:about="">
        <dc:format>image/svg+xml</dc:format>
        <dc:type
           rdf:resource="http://purl.org/dc/dcmitype/StillImage" />
        <dc:title></dc:title>
      </cc:Work>
    </rdf:RDF>
  </metadata>
  <g
     sodipodi:insensitive="true"
     style="display:none"
     id="layer1"
     inkscape:groupmode="layer"
     inkscape:label="Layer 1">
    <g
       transform="scale(0.26458333)"
       id="g2864">
      <path
         d="M 0,0 H 32 V 32 H 0 Z m 15,2 v 1 h -1 v 1 h -1 v 2 h -1 v 2 h -1 v 2 h -1 v 1 H 9 v 2 H 8 v 3 H 7 v 2 H 6 v 1 H 5 v 2 H 4 v 2 H 3 v 2 H 2 v 3 h 1 v 1 h 2 v 1 h 22 v -1 h 2 v -1 h 1 V 26 H 29 V 24 H 28 V 22 H 27 V 20 H 26 V 18 H 25 V 16 H 24 V 13 H 23 V 12 H 22 V 10 H 21 V 8 H 20 V 6 H 19 V 4 H 18 V 3 H 17 V 2 Z"
         fill-rule="nonzero"
         fill="#ffffff"
         id="path2841" />
      <path
         d="m 15,2 h 2 v 1 h 1 v 1 h 1 v 2 h 1 v 2 h 1 v 2 h 1 v 2 h 1 v 1 h 1 v 3 h 1 v 2 h 1 v 2 h 1 v 2 h 1 v 2 h 1 v 2 h 1 v 2 h -1 v 1 h -2 v 1 H 5 V 29 H 3 V 28 H 2 v -3 h 1 v -2 h 1 v -2 h 1 v -2 h 1 v -1 h 1 v -2 h 1 v -3 h 1 v -2 h 1 v -1 h 1 V 8 h 1 V 6 h 1 V 4 h 1 V 3 h 1 z m 0,3 v 2 h -1 v 2 h -1 v 2 h -1 v 2 h -1 v 3 h -1 v 1 H 9 v 2 H 8 v 2 H 7 v 2 H 6 v 2 H 5 v 2 h 2 v 1 h 18 v -1 h 2 V 25 H 26 V 23 H 25 V 21 H 24 V 20 H 23 V 18 H 22 V 16 H 21 V 13 H 20 V 11 H 19 V 9 H 18 V 7 H 17 V 5 Z"
         fill-rule="nonzero"
         fill="#000000"
         id="path2843" />
      <path
         d="m 15,5 h 2 v 2 h 1 v 2 h 1 v 2 h 1 v 2 h 1 v 3 h 1 v 2 h 1 v 2 h 1 v 1 h 1 v 2 h 1 v 2 h 1 v 2 h -2 v 1 H 7 V 27 H 5 v -2 h 1 v -2 h 1 v -2 h 1 v -2 h 1 v -2 h 1 v -1 h 1 v -3 h 1 v -2 h 1 V 9 h 1 V 7 h 1 z m 0,5 v 1 h -1 v 9 h 1 v 2 h 2 v -2 h 1 v -9 h -1 v -1 z m 0,13 v 1 h -1 v 2 h 1 v 1 h 2 v -1 h 1 v -2 h -1 v -1 z"
         fill-rule="nonzero"
         fill="#ffffff"
         id="path2845" />
      <path
         d="m 15,10 h 2 v 1 h 1 v 9 h -1 v 2 h -2 v -2 h -1 v -9 h 1 z"
         fill="#000000"
         id="path2847" />
      <path
         d="m 15,23 h 2 v 1 h 1 v 2 h -1 v 1 h -2 v -1 h -1 v -2 h 1 z"
         fill="#000000"
         id="path2849" />
    </g>
  </g>
  <g
     style="display:inline"
     inkscape:label="Layer 2"
     id="layer2"
     inkscape:groupmode="layer">
    <path
       transform="scale(0.26458333)"
       d="M 15 2 L 15 3 L 14 3 L 14 4 L 13 4 L 13 6 L 12 6 L 12 8 L 11 8 L 11 10 L 10 10 L 10 12 L 9 12 L 9 13 L 8 13 L 8 16 L 7 16 L 7 18 L 6 18 L 6 20 L 5 20 L 5 21 L 4 21 L 4 24 L 3 24 L 3 25 L 2 25 L 2 28 L 3 28 L 3 29 L 5 29 L 5 30 L 7 30 L 25 30 L 27 30 L 27 29 L 29 29 L 29 28 L 30 28 L 30 25 L 29 25 L 29 24 L 28 24 L 28 21 L 27 21 L 27 20 L 26 20 L 26 18 L 25 18 L 25 16 L 24 16 L 24 13 L 23 13 L 23 12 L 22 12 L 22 10 L 21 10 L 21 8 L 20 8 L 20 6 L 19 6 L 19 4 L 18 4 L 18 3 L 17 3 L 17 2 L 15 2 z M 15 5 L 17 5 L 17 7 L 18 7 L 18 9 L 19 9 L 19 11 L 20 11 L 20 13 L 21 13 L 21 16 L 22 16 L 22 17 L 23 17 L 23 20 L 24 20 L 24 21 L 25 21 L 25 23 L 26 23 L 26 25 L 27 25 L 27 27 L 25 27 L 25 28 L 7 28 L 7 27 L 5 27 L 5 25 L 6 25 L 6 23 L 7 23 L 7 21 L 8 21 L 8 20 L 9 20 L 9 17 L 10 17 L 10 16 L 11 16 L 11 13 L 12 13 L 12 11 L 13 11 L 13 9 L 14 9 L 14 7 L 15 7 L 15 5 z M 15 10 L 15 11 L 14 11 L 14 19 L 15 19 L 15 22 L 17 22 L 17 19 L 18 19 L 18 11 L 17 11 L 17 10 L 15 10 z M 15 23 L 15 24 L 14 24 L 14 26 L 15 26 L 15 27 L 17 27 L 17 26 L 18 26 L 18 24 L 17 24 L 17 23 L 15 23 z "
       style="fill:#000000;stroke-width:0.904532"
       id="rect2866" />
  </g>
</svg>
