<svg xmlns="http://www.w3.org/2000/svg" viewBox="0 0 8.467 8.467">
<path stroke-width=".265" d="M3.703.53v.265h-.527v.264h-.53v.263h-.529v.266h-.529v.264h-.529v.265H.795v.264H.529v.529h.266v1.852h.527V3.439h.53V4.762h.529V3.439h.529V4.762h.529V3.439h.53v-.263H1.322V2.91H3.97v-.264h-2.91v-.265h.529v-.264h.529v-.265h.529v-.264h.53v-.266h.527V1.06h.266v-.53h-.266zm.266 0l.002.265h-.002l.002.264h.791v-.53h-.793zm.793.529h.002l-.002.263h.531v.266h.527v.264h.53v.265h.529v-.529H6.35v-.266h-.53V1.06h-.527V.795h-.529l-.002.264zm2.117 1.058h.002l-.002.264h.529v.265h-.527l-.002.264h.266v.266H6.88l-.002.263h.266V4.762h.529V2.91h.263v-.529h-.263v-.264h-.266v-.265h-.527l-.002.265zm0 1.322v-.263H4.764l-.002.263h.265V4.762h.53V3.439h.529V4.762h.529V3.439h.264zm-2.117 0v-.263h-.793l.002.263h-.002l.002.264h-.002l.002.266h-.002l.002.263h-.002l.002.266h-.002l.002.264h.527V3.439h.264zm2.117-.529v-.264H4.764l-.002.264h2.117zm-2.117 0v-.264h-.793l.002.264h.791zM.795 4.764v1.322H.529v.529H.266v.264h.529v-.264h.264v-.529h1.058v.529H3.97V6.35H2.38v-.264h1.588V5.82h-.53V4.764H2.91V5.82h-.529V4.764h-.529V5.82h-.53V4.764H.795zM3.969 5.82l.002.266h.791V5.82h-.264V4.764h-.529l.002.263h-.002l.002.266h-.002l.002.264h-.002l.002.263h-.002zm.793.266h1.324v.264H4.764l-.002.265H6.35v-.529h.529V5.82h-.264V4.764h-.529V5.82h-.529V4.764h-.53V5.82h-.263l-.002.266zm2.117 0h.529v.529h.266v.264H8.2v-.264h-.264v-.529h-.263V4.764h-.529V5.82H6.88l-.002.266zm-.53.53v.263h.266v-.264H6.35zm-1.587 0V6.35h-.793l.002.265h.791zm-2.645 0h-.265v.263h.265v-.264zM.266 6.88v.264H0v.792H3.969v-.529H1.852v-.263h-.264v.263H.529v-.263h.266V6.88H.266zm1.586.264h2.117V6.88H1.852v.264zm2.117-.264l.002.264h.791V6.88h-.793zm.793.264H6.615V6.88H4.764l-.002.264zm1.853 0v.263H4.764l-.002.266h.002l-.002.263h2.117v-.792h-.264zm.264.529h.002l-.002.263h1.588v-.792H8.2V6.88h-.527v.264h.263v.263H6.881l-.002.266zm-2.117.263v-.529h-.793l.002.266h-.002l.002.263h.791z"/>
</svg>
