<?xml version="1.0" encoding="UTF-8" standalone="no"?>
<svg
   xmlns:dc="http://purl.org/dc/elements/1.1/"
   xmlns:cc="http://creativecommons.org/ns#"
   xmlns:rdf="http://www.w3.org/1999/02/22-rdf-syntax-ns#"
   xmlns:svg="http://www.w3.org/2000/svg"
   xmlns="http://www.w3.org/2000/svg"
   xmlns:sodipodi="http://sodipodi.sourceforge.net/DTD/sodipodi-0.dtd"
   xmlns:inkscape="http://www.inkscape.org/namespaces/inkscape"
   sodipodi:docname="emailw.svg"
   inkscape:version="1.0 (4035a4f, 2020-05-01)"
   id="svg8"
   version="1.1"
   viewBox="0 0 8.4666665 8.4666669"
   height="32"
   width="32">
  <defs
     id="defs2" />
  <sodipodi:namedview
     inkscape:window-maximized="1"
     inkscape:window-y="23"
     inkscape:window-x="0"
     inkscape:window-height="855"
     inkscape:window-width="1440"
     units="px"
     inkscape:pagecheckerboard="true"
     showgrid="false"
     inkscape:document-rotation="0"
     inkscape:current-layer="layer2"
     inkscape:document-units="px"
     inkscape:cy="18.565682"
     inkscape:cx="16.270104"
     inkscape:zoom="10.526962"
     inkscape:pageshadow="2"
     inkscape:pageopacity="0.0"
     borderopacity="1.0"
     bordercolor="#666666"
     pagecolor="#ffffff"
     id="base" />
  <metadata
     id="metadata5">
    <rdf:RDF>
      <cc:Work
         rdf:about="">
        <dc:format>image/svg+xml</dc:format>
        <dc:type
           rdf:resource="http://purl.org/dc/dcmitype/StillImage" />
        <dc:title></dc:title>
      </cc:Work>
    </rdf:RDF>
  </metadata>
  <g
     sodipodi:insensitive="true"
     style="display:none"
     id="layer1"
     inkscape:groupmode="layer"
     inkscape:label="Layer 1">
    <g
       transform="scale(0.26458333)"
       id="g862">
      <path
         d="M 0,0 H 32 V 32 H 0 Z M 2,7 V 8 H 1 v 17 h 1 v 1 h 28 v -1 h 1 V 8 H 30 V 7 Z"
         fill-rule="nonzero"
         fill="#ffffff"
         id="path779" />
      <path
         d="M 2,7 H 30 V 8 H 2 Z"
         fill="#000000"
         id="path781" />
      <path
         d="m 1,8 h 1 v 1 h 1 v 1 h 1 v 1 h 1 v 1 h 1 v 1 h 1 v 1 h 1 v 1 h 1 v 1 h 1 v 1 h 1 v 1 h 1 v 1 h 1 v 1 h 1 v 1 h 1 v 1 h 2 v -1 h 1 v -1 h 1 v -1 h 1 v -1 h 1 v -1 h 1 v -1 h 1 v -1 h 1 v -1 h 1 v -1 h 1 v -1 h 1 v -1 h 1 v -1 h 1 V 9 h 1 V 8 h 1 V 25 H 30 V 11 h -1 v 1 h -1 v 1 h -1 v 1 h -1 v 1 h -1 v 1 h -1 v 1 h -1 v 1 h -1 v 1 h -1 v 1 h -1 v 1 h -1 v 1 h -1 v 1 h -1 v 1 H 15 V 23 H 14 V 22 H 13 V 21 H 12 V 20 H 11 V 19 H 10 V 18 H 9 V 17 H 8 V 16 H 7 V 15 H 6 V 14 H 5 V 13 H 4 V 12 H 3 V 11 H 2 V 25 H 1 Z"
         fill="#000000"
         id="path783" />
      <path
         d="m 2,8 h 28 v 1 h -1 v 1 h -1 v 1 h -1 v 1 h -1 v 1 h -1 v 1 h -1 v 1 h -1 v 1 h -1 v 1 h -1 v 1 h -1 v 1 h -1 v 1 h -1 v 1 h -1 v 1 H 15 V 21 H 14 V 20 H 13 V 19 H 12 V 18 H 11 V 17 H 10 V 16 H 9 V 15 H 8 V 14 H 7 V 13 H 6 V 12 H 5 V 11 H 4 V 10 H 3 V 9 H 2 Z m 11,1 v 1 h -1 v 5 h 1 v 1 h 5 v -1 h -5 v -5 h 5 V 9 Z m 5,1 v 3 h -1 v 1 h 2 v -4 z m -4,2 v 2 h 2 v -1 h 1 v -2 h -2 v 1 z"
         fill-rule="nonzero"
         fill="#ffffff"
         id="path785" />
      <path
         d="m 13,9 h 5 v 1 h -5 z"
         fill="#000000"
         id="path787" />
      <path
         d="m 12,10 h 1 v 5 h -1 z"
         fill="#000000"
         id="path789" />
      <path
         d="m 18,10 h 1 v 4 h -2 v -1 h 1 z"
         fill="#000000"
         id="path791" />
      <path
         d="m 2,11 h 1 v 1 h 1 v 1 h 1 v 1 h 1 v 1 h 1 v 1 h 1 v 1 h 1 v 1 h 1 v 1 H 9 v 1 H 8 v 1 H 7 v 1 H 6 v 1 H 5 v 1 H 4 v 1 H 2 Z"
         fill="#ffffff"
         id="path793" />
      <path
         d="m 15,11 h 2 v 2 h -1 v -1 h -1 z"
         fill="#000000"
         id="path795" />
      <path
         d="m 29,11 h 1 v 14 h -2 v -1 h -1 v -1 h -1 v -1 h -1 v -1 h -1 v -1 h -1 v -1 h -1 v -1 h 1 v -1 h 1 v -1 h 1 v -1 h 1 v -1 h 1 v -1 h 1 v -1 h 1 z"
         fill="#ffffff"
         id="path797" />
      <path
         d="m 14,12 h 1 v 1 h 1 v 1 h -2 z"
         fill="#000000"
         id="path799" />
      <path
         d="m 15,12 h 1 v 1 h -1 z"
         fill="#ffffff"
         id="path801" />
      <path
         d="m 13,15 h 5 v 1 h -5 z"
         fill="#000000"
         id="path803" />
      <path
         d="m 9,19 h 1 v 1 H 9 Z"
         fill="#000000"
         id="path805" />
      <path
         d="m 10,19 h 1 v 1 h 1 v 1 h 1 v 1 h 1 v 1 h 1 v 1 h 2 v -1 h 1 v -1 h 1 v -1 h 1 v -1 h 1 v -1 h 1 v 1 h 1 v 1 h 1 v 1 h 1 v 1 h 1 v 1 h 1 v 1 H 5 v -1 h 1 v -1 h 1 v -1 h 1 v -1 h 1 v -1 h 1 z"
         fill="#ffffff"
         id="path807" />
      <path
         d="m 22,19 h 1 v 1 h -1 z"
         fill="#000000"
         id="path809" />
      <path
         d="m 8,20 h 1 v 1 H 8 Z"
         fill="#000000"
         id="path811" />
      <path
         d="m 23,20 h 1 v 1 h -1 z"
         fill="#000000"
         id="path813" />
      <path
         d="m 7,21 h 1 v 1 H 7 Z"
         fill="#000000"
         id="path815" />
      <path
         d="m 24,21 h 1 v 1 h -1 z"
         fill="#000000"
         id="path817" />
      <path
         d="m 6,22 h 1 v 1 H 6 Z"
         fill="#000000"
         id="path819" />
      <path
         d="m 25,22 h 1 v 1 h -1 z"
         fill="#000000"
         id="path821" />
      <path
         d="m 5,23 h 1 v 1 H 5 Z"
         fill="#000000"
         id="path823" />
      <path
         d="m 26,23 h 1 v 1 h -1 z"
         fill="#000000"
         id="path825" />
      <path
         d="m 4,24 h 1 v 1 h 22 v -1 h 1 v 1 h 2 v 1 H 2 v -1 h 2 z"
         fill="#000000"
         id="path827" />
    </g>
  </g>
  <g
     inkscape:label="Layer 2"
     id="layer2"
     inkscape:groupmode="layer">
    <g
       id="g1331">
      <path
         id="rect864"
         style="fill:#ffffff;stroke-width:0.999999"
         d="M 1 8 L 1 25 L 2 25 L 2 11 L 3 11 L 3 12 L 4 12 L 4 13 L 5 13 L 5 14 L 6 14 L 6 15 L 7 15 L 7 16 L 8 16 L 8 17 L 9 17 L 9 18 L 10 18 L 10 19 L 11 19 L 11 20 L 12 20 L 12 21 L 13 21 L 13 22 L 14 22 L 14 23 L 15 23 L 15 24 L 17 24 L 17 23 L 18 23 L 18 22 L 19 22 L 19 21 L 20 21 L 20 20 L 21 20 L 21 19 L 22 19 L 22 18 L 23 18 L 23 17 L 24 17 L 24 16 L 25 16 L 25 15 L 26 15 L 26 14 L 27 14 L 27 13 L 28 13 L 28 12 L 29 12 L 29 11 L 30 11 L 30 25 L 31 25 L 31 8 L 30 8 L 30 9 L 29 9 L 29 10 L 28 10 L 28 11 L 27 11 L 27 12 L 26 12 L 26 13 L 25 13 L 25 14 L 24 14 L 24 15 L 23 15 L 23 16 L 22 16 L 22 17 L 21 17 L 21 18 L 20 18 L 20 19 L 19 19 L 19 20 L 18 20 L 18 21 L 17 21 L 17 22 L 15 22 L 15 21 L 14 21 L 14 20 L 13 20 L 13 19 L 12 19 L 12 18 L 11 18 L 11 17 L 10 17 L 10 16 L 9 16 L 9 15 L 8 15 L 8 14 L 7 14 L 7 13 L 6 13 L 6 12 L 5 12 L 5 11 L 4 11 L 4 10 L 3 10 L 3 9 L 2 9 L 2 8 L 1 8 z "
         transform="scale(0.26458333)" />
      <rect
         style="fill:#ffffff;stroke-width:0.33956"
         id="rect864-0-7"
         width="0.26458332"
         height="7.4083333"
         x="-6.8791666"
         y="0.52916664"
         transform="rotate(-90)" />
      <rect
         transform="rotate(-90)"
         y="0.52916664"
         x="-2.1166666"
         height="7.4083333"
         width="0.26458332"
         id="rect864-0-7-9"
         style="fill:#ffffff;stroke-width:0.339561" />
      <path
         id="rect864-4-99"
         style="fill:#ffffff;stroke-width:0.342997"
         d="M 15 11 L 15 12 L 16 12 L 16 13 L 17 13 L 17 11 L 16 11 L 15 11 z "
         transform="scale(0.26458333)" />
      <path
         id="rect864-4-99-4"
         style="fill:#ffffff;stroke-width:0.342997"
         d="M 14 12 L 14 14 L 15 14 L 16 14 L 16 13 L 15 13 L 15 12 L 14 12 z "
         transform="scale(0.26458333)" />
      <rect
         y="2.6458333"
         x="3.175"
         height="1.3229166"
         width="0.26458332"
         id="rect864-4-99-9"
         style="fill:#ffffff;stroke-width:0.14349" />
      <path
         id="rect864-4-99-8"
         style="fill:#ffffff;stroke-width:0.485072"
         d="M 18 10 L 18 13 L 17 13 L 17 14 L 18 14 L 19 14 L 19 10 L 18 10 z "
         transform="scale(0.26458333)" />
      <rect
         style="fill:#ffffff;stroke-width:0.143491"
         id="rect864-4-99-8-2"
         width="0.26458332"
         height="1.3229166"
         x="-2.6458333"
         y="3.4395833"
         transform="rotate(-90)" />
      <rect
         transform="rotate(-90)"
         y="3.4395833"
         x="-4.2333331"
         height="1.3229166"
         width="0.26458332"
         id="rect864-4-99-8-2-7"
         style="fill:#ffffff;stroke-width:0.143491" />
      <rect
         transform="rotate(-90)"
         y="5.8208332"
         x="-5.2916665"
         height="0.26458335"
         width="0.26458332"
         id="rect864-4-99-8-2-7-1"
         style="fill:#ffffff;stroke-width:0.064171" />
      <rect
         transform="rotate(-90)"
         y="6.0854168"
         x="-5.5562496"
         height="0.26458335"
         width="0.26458332"
         id="rect864-4-99-8-2-7-1-2"
         style="fill:#ffffff;stroke-width:0.064171" />
      <rect
         transform="rotate(-90)"
         y="6.3499999"
         x="-5.8208332"
         height="0.26458335"
         width="0.26458332"
         id="rect864-4-99-8-2-7-1-1"
         style="fill:#ffffff;stroke-width:0.064171" />
      <rect
         transform="rotate(-90)"
         y="6.614583"
         x="-6.0854163"
         height="0.26458335"
         width="0.26458332"
         id="rect864-4-99-8-2-7-1-7"
         style="fill:#ffffff;stroke-width:0.064171" />
      <rect
         transform="rotate(-90)"
         y="6.8791661"
         x="-6.3499999"
         height="0.26458335"
         width="0.26458332"
         id="rect864-4-99-8-2-7-1-75"
         style="fill:#ffffff;stroke-width:0.064171" />
      <rect
         transform="rotate(-90)"
         y="7.1437497"
         x="-6.614583"
         height="0.26458335"
         width="0.26458332"
         id="rect864-4-99-8-2-7-1-17"
         style="fill:#ffffff;stroke-width:0.064171" />
      <rect
         transform="rotate(-90)"
         y="1.0583333"
         x="-6.614583"
         height="0.26458335"
         width="0.26458332"
         id="rect864-4-99-8-2-7-1-26"
         style="fill:#ffffff;stroke-width:0.064171" />
      <rect
         transform="rotate(-90)"
         y="1.3229166"
         x="-6.3499999"
         height="0.26458335"
         width="0.26458332"
         id="rect864-4-99-8-2-7-1-8"
         style="fill:#ffffff;stroke-width:0.064171" />
      <rect
         transform="rotate(-90)"
         y="1.5875"
         x="-6.0854168"
         height="0.26458335"
         width="0.26458332"
         id="rect864-4-99-8-2-7-1-9"
         style="fill:#ffffff;stroke-width:0.064171" />
      <rect
         transform="rotate(-90)"
         y="1.8520833"
         x="-5.8208332"
         height="0.26458335"
         width="0.26458332"
         id="rect864-4-99-8-2-7-1-11"
         style="fill:#ffffff;stroke-width:0.064171" />
      <rect
         transform="rotate(-90)"
         y="2.1166666"
         x="-5.5562496"
         height="0.26458335"
         width="0.26458332"
         id="rect864-4-99-8-2-7-1-3"
         style="fill:#ffffff;stroke-width:0.064171" />
      <rect
         transform="rotate(-90)"
         y="2.3812499"
         x="-5.2916665"
         height="0.26458335"
         width="0.26458332"
         id="rect864-4-99-8-2-7-1-39"
         style="fill:#ffffff;stroke-width:0.064171" />
    </g>
  </g>
</svg>
