<?xml version="1.0" encoding="UTF-8" standalone="no"?>
<svg
   xmlns:dc="http://purl.org/dc/elements/1.1/"
   xmlns:cc="http://creativecommons.org/ns#"
   xmlns:rdf="http://www.w3.org/1999/02/22-rdf-syntax-ns#"
   xmlns:svg="http://www.w3.org/2000/svg"
   xmlns="http://www.w3.org/2000/svg"
   xmlns:sodipodi="http://sodipodi.sourceforge.net/DTD/sodipodi-0.dtd"
   xmlns:inkscape="http://www.inkscape.org/namespaces/inkscape"
   sodipodi:docname="filegenericw.svg"
   inkscape:version="1.0 (4035a4f, 2020-05-01)"
   id="svg8"
   version="1.1"
   viewBox="0 0 8.4666665 8.4666659"
   height="32"
   width="32">
  <defs
     id="defs2" />
  <sodipodi:namedview
     inkscape:window-maximized="0"
     inkscape:window-y="23"
     inkscape:window-x="0"
     inkscape:window-height="855"
     inkscape:window-width="1379"
     units="px"
     inkscape:pagecheckerboard="true"
     showgrid="false"
     inkscape:document-rotation="0"
     inkscape:current-layer="layer2"
     inkscape:document-units="mm"
     inkscape:cy="16.564524"
     inkscape:cx="12.298505"
     inkscape:zoom="15.470319"
     inkscape:pageshadow="2"
     inkscape:pageopacity="0.0"
     borderopacity="1.0"
     bordercolor="#666666"
     pagecolor="#ffffff"
     id="base" />
  <metadata
     id="metadata5">
    <rdf:RDF>
      <cc:Work
         rdf:about="">
        <dc:format>image/svg+xml</dc:format>
        <dc:type
           rdf:resource="http://purl.org/dc/dcmitype/StillImage" />
        <dc:title></dc:title>
      </cc:Work>
    </rdf:RDF>
  </metadata>
  <g
     sodipodi:insensitive="true"
     style="display:none"
     id="layer1"
     inkscape:groupmode="layer"
     inkscape:label="Layer 1">
    <g
       transform="scale(0.26458333)"
       id="g2314">
      <path
         d="M 0,0 H 5 V 32 H 0 Z"
         fill="#ffffff"
         id="path2264" />
      <path
         d="m 5,0 h 15 v 1 h 1 v 1 h -1 v 5 h 5 V 6 h 1 v 1 h 1 V 32 H 5 Z M 6,1 V 31 H 26 V 8 H 19 V 1 Z"
         fill-rule="nonzero"
         fill="#000000"
         id="path2266" />
      <path
         d="M 20,0 H 32 V 32 H 27 V 7 H 26 V 6 H 25 V 5 H 24 V 4 H 23 V 3 H 22 V 2 H 21 V 1 h -1 z"
         fill="#ffffff"
         id="path2268" />
      <path
         d="m 6,1 h 13 v 7 h 7 V 31 H 6 Z m 3,11 v 1 h 14 v -1 z m 0,3 v 1 h 14 v -1 z m 0,3 v 1 h 14 v -1 z m 0,3 v 1 h 14 v -1 z m 0,3 v 1 h 7 v -1 z"
         fill-rule="nonzero"
         fill="#ffffff"
         id="path2270" />
      <path
         d="m 20,2 h 1 v 1 h 1 v 1 h 1 v 1 h 1 v 1 h 1 v 1 h -5 z"
         fill="#ffffff"
         id="path2272" />
      <path
         d="m 21,2 h 1 v 1 h -1 z"
         fill="#000000"
         id="path2274" />
      <path
         d="m 22,3 h 1 v 1 h -1 z"
         fill="#000000"
         id="path2276" />
      <path
         d="m 23,4 h 1 v 1 h -1 z"
         fill="#000000"
         id="path2278" />
      <path
         d="m 24,5 h 1 v 1 h -1 z"
         fill="#000000"
         id="path2280" />
      <path
         d="m 9,12 h 14 v 1 H 9 Z"
         fill="#000000"
         id="path2282" />
      <path
         d="m 9,15 h 14 v 1 H 9 Z"
         fill="#000000"
         id="path2284" />
      <path
         d="m 9,18 h 14 v 1 H 9 Z"
         fill="#000000"
         id="path2286" />
      <path
         d="m 9,21 h 14 v 1 H 9 Z"
         fill="#000000"
         id="path2288" />
      <path
         d="m 9,24 h 7 v 1 H 9 Z"
         fill="#000000"
         id="path2290" />
    </g>
  </g>
  <g
     inkscape:label="Layer 2"
     id="layer2"
     inkscape:groupmode="layer">
    <path
       transform="scale(0.26458333)"
       d="M 5 0 L 5 32 L 6 32 L 26 32 L 27 32 L 27 7 L 26 7 L 26 6 L 25 6 L 25 7 L 20 7 L 20 2 L 21 2 L 21 1 L 20 1 L 20 0 L 6 0 L 5 0 z M 21 2 L 21 3 L 22 3 L 22 2 L 21 2 z M 22 3 L 22 4 L 23 4 L 23 3 L 22 3 z M 23 4 L 23 5 L 24 5 L 24 4 L 23 4 z M 24 5 L 24 6 L 25 6 L 25 5 L 24 5 z M 6 1 L 19 1 L 19 8 L 20 8 L 26 8 L 26 31 L 6 31 L 6 1 z M 9 12 L 9 13 L 23 13 L 23 12 L 9 12 z M 9 15 L 9 16 L 23 16 L 23 15 L 9 15 z M 9 18 L 9 19 L 23 19 L 23 18 L 9 18 z M 9 21 L 9 22 L 23 22 L 23 21 L 9 21 z M 9 24 L 9 25 L 16 25 L 16 24 L 9 24 z "
       style="fill:#ffffff;stroke-width:0.999999"
       id="rect2319" />
  </g>
</svg>
