<?xml version="1.0" encoding="UTF-8" standalone="no"?>
<svg
   xmlns:dc="http://purl.org/dc/elements/1.1/"
   xmlns:cc="http://creativecommons.org/ns#"
   xmlns:rdf="http://www.w3.org/1999/02/22-rdf-syntax-ns#"
   xmlns:svg="http://www.w3.org/2000/svg"
   xmlns="http://www.w3.org/2000/svg"
   xmlns:sodipodi="http://sodipodi.sourceforge.net/DTD/sodipodi-0.dtd"
   xmlns:inkscape="http://www.inkscape.org/namespaces/inkscape"
   sodipodi:docname="filecodew.svg"
   inkscape:version="1.0 (4035a4f, 2020-05-01)"
   id="svg8"
   version="1.1"
   viewBox="0 0 8.4666665 8.4666659"
   height="32"
   width="32">
  <defs
     id="defs2" />
  <sodipodi:namedview
     inkscape:window-maximized="0"
     inkscape:window-y="23"
     inkscape:window-x="0"
     inkscape:window-height="855"
     inkscape:window-width="1379"
     units="px"
     inkscape:pagecheckerboard="true"
     showgrid="false"
     inkscape:document-rotation="0"
     inkscape:current-layer="layer2"
     inkscape:document-units="mm"
     inkscape:cy="16.050713"
     inkscape:cx="14.427892"
     inkscape:zoom="19.71875"
     inkscape:pageshadow="2"
     inkscape:pageopacity="0.0"
     borderopacity="1.0"
     bordercolor="#666666"
     pagecolor="#ffffff"
     id="base" />
  <metadata
     id="metadata5">
    <rdf:RDF>
      <cc:Work
         rdf:about="">
        <dc:format>image/svg+xml</dc:format>
        <dc:type
           rdf:resource="http://purl.org/dc/dcmitype/StillImage" />
        <dc:title></dc:title>
      </cc:Work>
    </rdf:RDF>
  </metadata>
  <g
     style="display:none"
     sodipodi:insensitive="true"
     id="layer1"
     inkscape:groupmode="layer"
     inkscape:label="Layer 1">
    <g
       transform="scale(0.26458333)"
       id="g56">
      <path
         d="M 0,0 H 32 V 5 H 0 Z"
         fill="#ffffff"
         id="path24" />
      <path
         d="M 0,5 H 32 V 26 H 0 Z M 1,6 V 9 H 31 V 6 Z m 0,4 V 25 H 31 V 10 Z"
         fill-rule="nonzero"
         fill="#000000"
         id="path26" />
      <path
         d="M 1,6 H 31 V 9 H 1 Z"
         fill="#ffffff"
         id="path28" />
      <path
         d="M 1,10 H 31 V 25 H 1 Z m 7,3 v 1 H 7 v 1 H 6 v 1 H 5 v 1 H 4 v 1 h 1 v 1 h 1 v 1 h 1 v 1 h 1 v 1 h 2 V 21 H 9 V 20 H 8 V 19 H 7 V 18 H 6 v -1 h 1 v -1 h 1 v -1 h 1 v -1 h 1 v -1 z m 10,-1 v 1 h -1 v 2 h -1 v 2 h -1 v 1 h -1 v 2 h -1 v 2 h -1 v 1 h 2 v -1 h 1 v -2 h 1 v -2 h 1 v -1 h 1 v -2 h 1 v -2 h 1 v -1 z m 4,1 v 1 h 1 v 1 h 1 v 1 h 1 v 1 h 1 v 1 h -1 v 1 h -1 v 1 h -1 v 1 h -1 v 1 h 2 v -1 h 1 v -1 h 1 v -1 h 1 v -1 h 1 v -1 h -1 v -1 h -1 v -1 h -1 v -1 h -1 v -1 z"
         fill-rule="nonzero"
         fill="#ffffff"
         id="path30" />
      <path
         d="m 18,12 h 2 v 1 h -1 v 2 h -1 v 2 h -1 v 1 h -1 v 2 h -1 v 2 h -1 v 1 h -2 v -1 h 1 v -2 h 1 v -2 h 1 v -1 h 1 v -2 h 1 v -2 h 1 z"
         fill="#000000"
         id="path32" />
      <path
         d="m 8,13 h 2 v 1 H 9 v 1 H 8 v 1 H 7 v 1 H 6 v 1 h 1 v 1 h 1 v 1 h 1 v 1 h 1 v 1 H 8 V 21 H 7 V 20 H 6 V 19 H 5 V 18 H 4 v -1 h 1 v -1 h 1 v -1 h 1 v -1 h 1 z"
         fill="#000000"
         id="path34" />
      <path
         d="m 22,13 h 2 v 1 h 1 v 1 h 1 v 1 h 1 v 1 h 1 v 1 h -1 v 1 h -1 v 1 h -1 v 1 h -1 v 1 h -2 v -1 h 1 v -1 h 1 v -1 h 1 v -1 h 1 v -1 h -1 v -1 h -1 v -1 h -1 v -1 h -1 z"
         fill="#000000"
         id="path36" />
      <path
         d="m 0,26 h 32 v 6 H 0 Z"
         fill="#ffffff"
         id="path38" />
    </g>
  </g>
  <g
     inkscape:label="Layer 2"
     id="layer2"
     inkscape:groupmode="layer">
    <g
       id="g131">
      <path
         id="rect59"
         style="fill:#ffffff;stroke-width:0.999999"
         d="M 0 5 L 0 25 L 0 26 L 32 26 L 32 25 L 32 5 L 31 5 L 1 5 L 0 5 z M 1 6 L 31 6 L 31 9 L 1 9 L 1 6 z M 1 10 L 31 10 L 31 25 L 1 25 L 1 10 z "
         transform="scale(0.26458333)" />
      <path
         id="rect69"
         style="fill:#ffffff;stroke-width:0.316228"
         d="M 8 13 L 8 14 L 7 14 L 7 15 L 6 15 L 6 16 L 5 16 L 5 17 L 4 17 L 4 18 L 5 18 L 5 19 L 6 19 L 6 20 L 7 20 L 7 21 L 8 21 L 8 22 L 10 22 L 10 21 L 9 21 L 9 20 L 8 20 L 8 19 L 7 19 L 7 18 L 6 18 L 6 17 L 7 17 L 7 16 L 8 16 L 8 15 L 9 15 L 9 14 L 10 14 L 10 13 L 8 13 z "
         transform="scale(0.26458333)" />
      <path
         d="M 6.3499999,3.4395833 V 3.7041666 H 6.6145832 V 3.96875 H 6.8791665 V 4.2333333 H 7.1437499 V 4.4979166 H 7.4083332 V 4.7624999 H 7.1437499 V 5.0270833 H 6.8791665 V 5.2916666 H 6.6145832 V 5.5562499 H 6.3499999 V 5.8208333 H 5.8208332 V 5.5562499 H 6.0854166 V 5.2916666 H 6.3499999 V 5.0270833 H 6.6145832 V 4.7624999 H 6.8791665 V 4.4979166 H 6.6145832 V 4.2333333 H 6.3499999 V 3.96875 H 6.0854166 V 3.7041666 H 5.8208332 V 3.4395833 Z"
         style="fill:#ffffff;stroke-width:0.0836687"
         id="path97" />
      <path
         id="rect99"
         style="fill:#ffffff;stroke-width:0.999999"
         d="M 18 12 L 18 13 L 17 13 L 17 15 L 16 15 L 16 17 L 15 17 L 15 18 L 14 18 L 14 20 L 13 20 L 13 22 L 12 22 L 12 23 L 14 23 L 14 22 L 15 22 L 15 20 L 16 20 L 16 18 L 17 18 L 17 17 L 18 17 L 18 15 L 19 15 L 19 13 L 20 13 L 20 12 L 18 12 z "
         transform="scale(0.26458333)" />
    </g>
  </g>
</svg>
