<?xml version="1.0" encoding="utf-8"?>
<!-- generated at drububu.com  -->
<!DOCTYPE svg PUBLIC "-//W3C//DTD SVG 1.1//EN" "http://www.w3.org/Graphics/SVG/1.1/DTD/svg11.dtd">
<svg version="1.1" preserveAspectRatio="xMinYMin meet" xmlns="http://www.w3.org/2000/svg" xmlns:xlink="http://www.w3.org/1999/xlink" x="0px" y="0px" width="32px" height="32px" viewBox="0 0 32 32">
<path d="M0 0h32v32h-32v-32zM8 3v1h-1v1h-1v1h-1v1h-1v1h-1v1h-1v3h-1v7h1v3h1v1h1v1h1v1h1v1h1v1h1v1h4v-3h-1
	v-2h-1v2h1v1h-2v-1h-2v-1h-1v-1h-1v-1h5v-1h-1v-3h-1v-1h-1v1h1v3h-4v-2h-1v-3h5v-3
	h1v-2h-1v2h-1v2h-4v-3h1v-2h5v-1h1v1h5v-6h2v2h1v2h1v1h-3v1h5v-1h-1v-1h-1v-2h-1
	v-1h2v1h2v1h1v1h1v1h-2v1h3v2h1v3h-3v1h3v3h-1v2h1v1h1v-3h1v-7h-1v-3h-1v-1h-1v-1
	h-1v-1h-1v-1h-1v-1h-1v-1h-3v-1h-7v1h-3zM9 15v1h6v-5h-1v4h-5zM11 21v1h4v-5h-1v4h-3zM13 24v5h1v1h4v-2h-3v-3h7v2h2v-3h-1v-1h-9v1h-1zM16 15v1h6v-3h-1v2h-5zM16 21v1h5v-4h-1v3h-4zM19 26v3h1v1h9v-1h1v-5h-1v-1h-4v2h3v3h-7v-2h-2zM20 11v2h1v-2h-1zM21 17v1h1v-1h-1zM22 21v1h3v-1h-3z" fill-rule="nonzero" fill="rgb(255,255,255)"/>
<path d="M11 2h7v1h3v1h-1v1h-2v1h-1v-2h-2v6h-5v-1h4v-5h-2v2h-1v-1h-2v-1h-1v-1h3
	v-1z" fill="rgb(0,0,0)"/>
<path d="M7 4h1v1h1v1h-2v1h-1v1h-1v1h4v1h-5v-1h-1v-1h1v-1h1v-1h1v-1h1v-1z" fill="rgb(0,0,0)"/>
<path d="M8 4h1v1h-1v-1z" fill="rgb(255,255,255)"/>
<path d="M12 4h2v5h-4v-1h1v-2h1v-2z" fill="rgb(255,255,255)"/>
<path d="M20 4h1v1h-1v-1z" fill="rgb(255,255,255)"/>
<path d="M21 4h1v1h1v1h1v1h1v1h1v1h-1v1h-3v-1h2v-1h-1v-1h-1v-1h-2v-1h1v-1z" fill="rgb(0,0,0)"/>
<path d="M9 5h2v1h-1v2h-1v1h-4v-1h1v-1h1v-1h2v-1z" fill="rgb(255,255,255)"/>
<path d="M10 6h1v2h-1v-2z" fill="rgb(0,0,0)"/>
<path d="M18 6h1v2h-1v-2z" fill="rgb(0,0,0)"/>
<path d="M9 8h1v1h-1v-1z" fill="rgb(0,0,0)"/>
<path d="M19 8h1v1h1v1h-5v-1h3v-1z" fill="rgb(0,0,0)"/>
<path d="M2 9h1v1h1v2h-1v3h4v-2h1v3h-5v3h1v2h-1v1h-1v-3h-1v-7h1v-3z" fill="rgb(0,0,0)"/>
<path d="M3 9h1v1h-1v-1z" fill="rgb(255,255,255)"/>
<path d="M25 9h1v1h-1v-1z" fill="rgb(255,255,255)"/>
<path d="M26 9h1v3h1v7h-1v3h-1v-1h-1v-2h1v-3h-3v-1h3v-3h-1v-2h1v-1z" fill="rgb(0,0,0)"/>
<path d="M8 11h1v2h-1v-2z" fill="rgb(0,0,0)"/>
<path d="M14 11h1v5h-6v-1h5v-4z" fill="rgb(0,0,0)"/>
<path d="M20 11h1v2h-1v-2z" fill="rgb(0,0,0)"/>
<path d="M21 13h1v3h-6v-1h5v-2z" fill="rgb(0,0,0)"/>
<path d="M7 17h1v1h-1v-1z" fill="rgb(0,0,0)"/>
<path d="M14 17h1v5h-4v-1h3v-4z" fill="rgb(0,0,0)"/>
<path d="M21 17h1v1h-1v-1z" fill="rgb(0,0,0)"/>
<path d="M8 18h1v3h1v1h-5v1h1v1h1v1h2v1h-1v1h-1v-1h-1v-1h-1v-1h-1v-1h-1v-1h1v-1
	h4v-3z" fill="rgb(0,0,0)"/>
<path d="M20 18h1v4h-5v-1h4v-3z" fill="rgb(0,0,0)"/>
<path d="M3 21h1v1h-1v-1z" fill="rgb(255,255,255)"/>
<path d="M22 21h3v1h-3v-1z" fill="rgb(0,0,0)"/>
<path d="M10 23h1v2h-1v-2z" fill="rgb(0,0,0)"/>
<path d="M14 23h9v1h1v3h-2v-2h-7v3h3v2h-4v-1h-1v-5h1v-1z" fill="rgb(0,0,0)"/>
<path d="M25 23h4v1h1v5h-1v1h-9v-1h-1v-3h2v2h7v-3h-3v-2z" fill="rgb(0,0,0)"/>
<path d="M11 25h1v3h-4v-1h1v-1h2v-1z" fill="rgb(0,0,0)"/>
<path d="M8 26h1v1h-1v-1z" fill="rgb(255,255,255)"/>
</svg>