<?xml version="1.0" encoding="utf-8"?>
<!-- generated at drububu.com  -->
<!DOCTYPE svg PUBLIC "-//W3C//DTD SVG 1.1//EN" "http://www.w3.org/Graphics/SVG/1.1/DTD/svg11.dtd">
<svg version="1.1" preserveAspectRatio="xMinYMin meet" xmlns="http://www.w3.org/2000/svg" xmlns:xlink="http://www.w3.org/1999/xlink" x="0px" y="0px" width="32px" height="32px" viewBox="0 0 32 32">
<path d="M0 0h32v8h-1v-2h-2v-1h-1v-1h-1v-1h-2v-1h-3v-1h-12v1h-3v1h-2v1h-1v1h-2
	v1h-1v2h-1v-8z" fill="rgb(255,255,255)"/>
<path d="M10 1h12v1h3v1h2v1h1v1h1v1h2v2h1v7h-1v1h-1v1h-1v1h-1v2h-1v5h-1v1h-1v1
	h-1v1h-1v1h-3v1h-8v-1h-3v-1h-1v-1h-1v-1h-1v-1h-1v-5h-1v-1h-1v-2h-1v-1h-1v-1h-1
	v-7h1v-2h1v-1h2v-1h1v-1h2v-1h3v-1zM7 5v3h1v-3h-1zM8 8v3h1v-3h-1zM13 8v4h1v1h1v1h2v-1h1v-1h1v-4h-6zM9 11v2h1v-2h-1zM2 12v1h1v-1h-1zM3 13v1h1v-1h-1zM4 14v1h2v-1h-2zM10 16v1h-5v1h5v-1h12v-1h-12zM24 5v3h-1v3h-1v2h1v-2h1v-3h1v-3h-1zM6 19v1h20v-1h-20zM26 14v1h2v-1h-2zM29 12v1h-1v1h1v-1h1v-1h-1zM22 17v1h5v-1h-5zM24 22v2h-1v1h-1v1h-1v1h1v-1h1v-1h1v-1h1v-2h-1z" fill-rule="nonzero" fill="rgb(0,0,0)"/>
<path d="M7 5h1v3h-1v-3z" fill="rgb(255,255,255)"/>
<path d="M24 5h1v3h-1v-3z" fill="rgb(255,255,255)"/>
<path d="M8 8h1v3h-1v-3z" fill="rgb(255,255,255)"/>
<path d="M13 8h6v4h-1v1h-1v1h-2v-1h-1v-1h-1v-4z" fill="rgb(255,255,255)"/>
<path d="M23 8h1v3h-1v-3z" fill="rgb(255,255,255)"/>
<path d="M9 11h1v2h-1v-2z" fill="rgb(255,255,255)"/>
<path d="M22 11h1v2h-1v-2z" fill="rgb(255,255,255)"/>
<path d="M2 12h1v1h-1v-1z" fill="rgb(255,255,255)"/>
<path d="M29 12h1v1h-1v-1z" fill="rgb(255,255,255)"/>
<path d="M3 13h1v1h-1v-1z" fill="rgb(255,255,255)"/>
<path d="M28 13h1v1h-1v-1z" fill="rgb(255,255,255)"/>
<path d="M4 14h2v1h-2v-1z" fill="rgb(255,255,255)"/>
<path d="M26 14h2v1h-2v-1z" fill="rgb(255,255,255)"/>
<path d="M0 15h1v1h1v1h1v2h1v1h1v5h1v1h1v1h1v1h1v1h3v1h8v-1h3v-1h1v-1h1v-1h1v-1
	h1v-5h1v-2h1v-1h1v-1h1v-1h1v17h-32v-17z" fill="rgb(255,255,255)"/>
<path d="M10 16h12v1h-12v-1z" fill="rgb(255,255,255)"/>
<path d="M5 17h5v1h-5v-1z" fill="rgb(255,255,255)"/>
<path d="M22 17h5v1h-5v-1z" fill="rgb(255,255,255)"/>
<path d="M6 19h20v1h-20v-1z" fill="rgb(255,255,255)"/>
<path d="M24 22h1v2h-1v-2z" fill="rgb(255,255,255)"/>
<path d="M23 24h1v1h-1v-1z" fill="rgb(255,255,255)"/>
<path d="M22 25h1v1h-1v-1z" fill="rgb(255,255,255)"/>
<path d="M21 26h1v1h-1v-1z" fill="rgb(255,255,255)"/>
</svg>