<?xml version="1.0" encoding="UTF-8" standalone="no"?>
<svg
   xmlns:dc="http://purl.org/dc/elements/1.1/"
   xmlns:cc="http://creativecommons.org/ns#"
   xmlns:rdf="http://www.w3.org/1999/02/22-rdf-syntax-ns#"
   xmlns:svg="http://www.w3.org/2000/svg"
   xmlns="http://www.w3.org/2000/svg"
   xmlns:sodipodi="http://sodipodi.sourceforge.net/DTD/sodipodi-0.dtd"
   xmlns:inkscape="http://www.inkscape.org/namespaces/inkscape"
   width="32"
   height="32"
   viewBox="0 0 8.4666665 8.4666669"
   version="1.1"
   id="svg8"
   inkscape:version="1.0 (4035a4f, 2020-05-01)"
   sodipodi:docname="wip.svg">
  <defs
     id="defs2" />
  <sodipodi:namedview
     id="base"
     pagecolor="#ffffff"
     bordercolor="#666666"
     borderopacity="1.0"
     inkscape:pageopacity="0.0"
     inkscape:pageshadow="2"
     inkscape:zoom="18.648393"
     inkscape:cx="20.22091"
     inkscape:cy="15.103493"
     inkscape:document-units="mm"
     inkscape:current-layer="layer1"
     inkscape:document-rotation="0"
     showgrid="false"
     units="px"
     inkscape:pagecheckerboard="true"
     inkscape:window-width="1379"
     inkscape:window-height="855"
     inkscape:window-x="0"
     inkscape:window-y="23"
     inkscape:window-maximized="0" />
  <metadata
     id="metadata5">
    <rdf:RDF>
      <cc:Work
         rdf:about="">
        <dc:format>image/svg+xml</dc:format>
        <dc:type
           rdf:resource="http://purl.org/dc/dcmitype/StillImage" />
        <dc:title />
      </cc:Work>
    </rdf:RDF>
  </metadata>
  <g
     inkscape:label="Layer 1"
     inkscape:groupmode="layer"
     id="layer1">
    <path
       transform="scale(0.26458333)"
       d="M 3 3 L 3 4 L 3 5 L 3 6 L 2 6 L 1 6 L 1 7 L 1 8 L 1 9 L 1 10 L 1 11 L 1 12 L 2 12 L 2 13 L 3 13 L 3 14 L 2 14 L 1 14 L 1 15 L 1 16 L 1 17 L 1 18 L 1 19 L 1 20 L 2 20 L 2 21 L 3 21 L 3 22 L 3 23 L 3 24 L 3 25 L 3 26 L 3 27 L 3 28 L 3 29 L 2 29 L 2 30 L 1 30 L 1 31 L 2 31 L 3 31 L 4 31 L 5 31 L 6 31 L 7 31 L 8 31 L 9 31 L 10 31 L 10 30 L 9 30 L 9 29 L 8 29 L 8 28 L 8 27 L 8 26 L 8 25 L 8 24 L 8 23 L 8 22 L 8 21 L 9 21 L 10 21 L 11 21 L 12 21 L 13 21 L 14 21 L 15 21 L 16 21 L 17 21 L 18 21 L 19 21 L 20 21 L 21 21 L 22 21 L 23 21 L 24 21 L 24 22 L 24 23 L 24 24 L 24 25 L 24 26 L 24 27 L 24 28 L 24 29 L 23 29 L 23 30 L 22 30 L 22 31 L 23 31 L 24 31 L 25 31 L 26 31 L 27 31 L 28 31 L 29 31 L 30 31 L 31 31 L 31 30 L 30 30 L 30 29 L 29 29 L 29 28 L 29 27 L 29 26 L 29 25 L 29 24 L 29 23 L 29 22 L 29 21 L 30 21 L 31 21 L 31 20 L 31 19 L 31 18 L 31 17 L 31 16 L 31 15 L 30 15 L 30 14 L 29 14 L 29 13 L 30 13 L 31 13 L 31 12 L 31 11 L 31 10 L 31 9 L 31 8 L 31 7 L 30 7 L 30 6 L 29 6 L 29 5 L 29 4 L 29 3 L 28 3 L 28 4 L 27 4 L 26 4 L 25 4 L 25 3 L 24 3 L 24 4 L 24 5 L 24 6 L 23 6 L 22 6 L 21 6 L 20 6 L 19 6 L 18 6 L 17 6 L 16 6 L 15 6 L 14 6 L 13 6 L 12 6 L 11 6 L 10 6 L 9 6 L 8 6 L 8 5 L 8 4 L 8 3 L 7 3 L 7 4 L 6 4 L 5 4 L 4 4 L 4 3 L 3 3 z M 4 5 L 5 5 L 6 5 L 6 6 L 5 6 L 4 6 L 4 5 z M 25 5 L 26 5 L 27 5 L 27 6 L 26 6 L 25 6 L 25 5 z M 3 7 L 4 7 L 5 7 L 6 7 L 6 8 L 5 8 L 5 9 L 4 9 L 4 10 L 3 10 L 3 11 L 2 11 L 2 10 L 2 9 L 2 8 L 3 8 L 3 7 z M 9 7 L 10 7 L 11 7 L 12 7 L 12 8 L 11 8 L 11 9 L 10 9 L 10 10 L 9 10 L 9 11 L 8 11 L 7 11 L 6 11 L 6 10 L 7 10 L 7 9 L 8 9 L 8 8 L 9 8 L 9 7 z M 15 7 L 16 7 L 17 7 L 18 7 L 18 8 L 17 8 L 17 9 L 16 9 L 16 10 L 15 10 L 15 11 L 14 11 L 13 11 L 12 11 L 12 10 L 13 10 L 13 9 L 14 9 L 14 8 L 15 8 L 15 7 z M 21 7 L 22 7 L 23 7 L 24 7 L 24 8 L 23 8 L 23 9 L 22 9 L 22 10 L 21 10 L 21 11 L 20 11 L 19 11 L 18 11 L 18 10 L 19 10 L 19 9 L 20 9 L 20 8 L 21 8 L 21 7 z M 27 7 L 28 7 L 29 7 L 29 8 L 29 9 L 28 9 L 28 10 L 27 10 L 27 11 L 26 11 L 25 11 L 24 11 L 24 10 L 25 10 L 25 9 L 26 9 L 26 8 L 27 8 L 27 7 z M 8 13 L 9 13 L 10 13 L 11 13 L 12 13 L 13 13 L 14 13 L 15 13 L 16 13 L 17 13 L 18 13 L 19 13 L 20 13 L 21 13 L 22 13 L 23 13 L 24 13 L 24 14 L 23 14 L 22 14 L 21 14 L 20 14 L 19 14 L 18 14 L 17 14 L 16 14 L 15 14 L 14 14 L 13 14 L 12 14 L 11 14 L 10 14 L 9 14 L 8 14 L 8 13 z M 25 13 L 26 13 L 27 13 L 27 14 L 26 14 L 25 14 L 25 13 z M 3 15 L 4 15 L 5 15 L 6 15 L 6 16 L 5 16 L 5 17 L 4 17 L 4 18 L 3 18 L 3 19 L 2 19 L 2 18 L 2 17 L 2 16 L 3 16 L 3 15 z M 9 15 L 10 15 L 11 15 L 12 15 L 12 16 L 11 16 L 11 17 L 10 17 L 10 18 L 9 18 L 9 19 L 8 19 L 7 19 L 6 19 L 6 18 L 7 18 L 7 17 L 8 17 L 8 16 L 9 16 L 9 15 z M 15 15 L 16 15 L 17 15 L 18 15 L 18 16 L 17 16 L 17 17 L 16 17 L 16 18 L 15 18 L 15 19 L 14 19 L 13 19 L 12 19 L 12 18 L 13 18 L 13 17 L 14 17 L 14 16 L 15 16 L 15 15 z M 21 15 L 22 15 L 23 15 L 24 15 L 24 16 L 23 16 L 23 17 L 22 17 L 22 18 L 21 18 L 21 19 L 20 19 L 19 19 L 18 19 L 18 18 L 19 18 L 19 17 L 20 17 L 20 16 L 21 16 L 21 15 z M 27 15 L 28 15 L 29 15 L 29 16 L 29 17 L 28 17 L 28 18 L 27 18 L 27 19 L 26 19 L 25 19 L 24 19 L 24 18 L 25 18 L 25 17 L 26 17 L 26 16 L 27 16 L 27 15 z M 4 21 L 5 21 L 6 21 L 6 22 L 6 23 L 6 24 L 6 25 L 6 26 L 6 27 L 6 28 L 5 28 L 4 28 L 4 27 L 4 26 L 4 25 L 4 24 L 4 23 L 4 22 L 4 21 z M 25 21 L 26 21 L 27 21 L 27 22 L 27 23 L 27 24 L 27 25 L 27 26 L 27 27 L 27 28 L 26 28 L 25 28 L 25 27 L 25 26 L 25 25 L 25 24 L 25 23 L 25 22 L 25 21 z "
       style="fill:#000000;fill-opacity:1;stroke-width:0.999999"
       id="path2054" />
    <path
       transform="scale(0.26458333)"
       d="M 25 2 L 25 3 L 26 3 L 27 3 L 28 3 L 28 2 L 27 2 L 26 2 L 25 2 z "
       style="fill:#000000;fill-opacity:1;stroke-width:0.999999"
       id="path256" />
    <path
       id="path250"
       d="M 6.3499997,0.52916665 H 6.614583 v 0.2645833 H 6.3499997"
       style="fill:#000000;fill-opacity:0;stroke-width:0.264583" />
    <path
       id="path216"
       d="M 1.8520832,0.5291666 H 2.1166666 V 0.79375 H 1.8520832"
       style="fill:#000000;fill-opacity:0;stroke-width:0.264583" />
    <path
       transform="scale(0.26458333)"
       d="M 4 2 L 4 3 L 5 3 L 6 3 L 7 3 L 7 2 L 6 2 L 5 2 L 4 2 z "
       style="fill:#000000;fill-opacity:1;stroke-width:0.999999"
       id="path214" />
  </g>
</svg>
