<svg xmlns="http://www.w3.org/2000/svg" viewBox="0 0 8.467 8.467">
  <defs/>
  <path d="M.795 2.38v.796H.266v1.322h.263v.264H3.97v-.53h-.793V3.97h.263v-.266h.264V3.44h.266v-.263H2.117V2.38h-.265v.265h-.793V2.38zm3.174.796l.002.263h.527v.264h-.266v.266H3.97l.002.263H3.97l.002.266H3.97l.002.264h.791V3.176h-.53V2.91h.53v-.264h-.53v-.265H3.97l.002.265H3.97l.002.264H3.97l.002.266H3.97zm.793-.266h.002l-.002.266h.002l-.002.263h.002l-.002.264h.002l-.002.266h.265v-.266h.266V3.44h.264v.793h-.793l-.002.266h.002l-.002.264h1.324V3.439H5.82v-.263h-.527V2.38h-.266v.265h-.263l-.002.264zm-3.703 0h.529v.266h-.529zm-.53.53h.793v.263H1.06v.266H.795v.263H.529zm1.588 0h.793v.263h-.264v.266h-.265v.263h-.793V3.97h.264v-.266h.265zM.795 4.763v.263H.266V6.35h.263v.265h.266v.264h.264v-.264h.529v.264h.529v-.264H3.97v-.529h-.793V5.82h.263v-.263h.264v-.264h.266v-.266H2.117v-.263h-.529v.263h-.529v-.263H.795zm3.174.263l.002.266h.527v.264h-.266v.263H3.97l.002.266H3.97l.002.264H3.97l.002.265H3.97l.002.264h.261v-.264h.53V5.027h-.53v-.263H3.97l.002.263H3.97zm.793 0h.002l-.002.266h.002l-.002.264h.002l-.002.263h.265v-.263h.266v-.264h.264v.793h-.793l-.002.264h.002l-.002.265h.002l-.002.264h.531v-.264h.793V5.293H5.82v-.266h-.527v-.263h-.529l-.002.263zm-4.233.266h.793v.264H1.06v.263H.795v.266H.529zm1.588 0h.793v.264h-.264v.263h-.265v.266h-.793V5.82h.264v-.263h.265v-.264zM.795 6.881v.793H.529v.263H.266v.264h2.38v-.264h-.265v-.263h-.264V6.88h-.529v.527h-.529V6.88H.795zm3.174 0l.002.264h-.002l.002.263h-.002l.002.266h-.002l.002.263h-.002l.002.264h.791V7.145h-.53V6.88H3.97zm.793.264h.002l-.002.263h.002l-.002.266h.002l-.002.263h.002l-.002.264H5.82v-.264h-.263v-.263h-.264V6.88h-.529l-.002.264zm-.793.793v-.264h-.266v.263H3.44v.264h.53v-.264z"/>
  <path d="M7.408 2.117v1.059h.266v1.586H8.2V3.176h-.264V2.38h-.263v-.264h-.266zm.266 2.647v.529h-.266v.527h-.263v.266H6.88l-.002.264h.002l-.002.265h.002l-.002.264h.266v-.264h.263V6.35h.266v-.264h.263v-.529H8.2v-.793h-.527zm-.795 2.115V6.35h-.264v.265H6.35v.264zM5.82 6.88v.527h.795v-.263h.264V6.88z"/>
  <path d="M2.646 6.88v.265h.264v.263h.529v-.527h-.793z"/>
  <path d="M4.232 2.117v.264h.53v-.264zm.53.264h.265v-.264h-.263z"/>
  <path d="M1.059 2.117v.264h.793v-.264z"/>
  <path d="M7.144 1.852h.264v.265h-.264"/>
  <path d="M6.88 1.587h.264v.265h-.265"/>
  <path d="M2.117 1.587h.264v.265h-.264"/>
  <path d="M6.615 1.323h.264v.264h-.264"/>
  <path d="M2.381 1.323h.265v.264H2.38"/>
  <path d="M6.35 1.058h.265v.265H6.35"/>
  <path d="M2.646 1.058h.264v.265h-.264"/>
  <path d="M5.557.795v.264h.793V.795z"/>
  <path d="M2.91.795v.264h.793V.795z"/>
  <path d="M3.703.53v.265h.266V.529h-.266zm.266 0l.002.265h.791V.529h-.793zm.793.265h.795V.529h-.793z"/>
</svg>
