<svg xmlns="http://www.w3.org/2000/svg" viewBox="0 0 8.467 8.467" shape-rendering="crispEdges">
  <path d="M3.175.794v.264h-.53v.265h-.528v.794h-.265v2.91h.265v1.587h.264v-.793h.265v-.794h1.058v-.265H2.381V3.704h1.323V3.44H2.646v-.265h.529V2.91h.265v-.264h.264v-.53h1.058v.53h.265v.264h.53v.265h.528v.265H4.762v.264h1.323v1.058H4.762v.265h1.059v.794h.264v.529h.265V5.027h.264V1.852H6.35v-.529h-.53v-.265h-.528V.794zm.794 4.498v.264h.529v-.264z"/>
  <path d="M2.646 5.82v1.588h-.53v.265H1.059v.264H.53v.53h2.38V5.82zm1.058-2.116v1.058h.265v-.529h.529v.53h.264v-1.06h-.264v.265h-.53v-.265h-.264zm-1.058.265v.264h.264v.265h.53v-.53h-.794zm2.381 0v.529h.53v-.265h.264V3.97h-.794zM2.91 6.35h.265v-.265H2.91zm2.91-.53v1.588h.53v.265h1.058v.264h.53v.53H5.555V5.82zm-2.645.795h.265V6.35h-.265zm.529.529h1.058v-.265H3.704z"/>
  <g stroke-width=".132">
    <path d="M5.027 6.615h.265V6.35h-.265zm.265-.265h.265v-.265h-.265zm-1.852.529h.265v-.265H3.44z"/>
    <path d="M4.763 6.879h.265v-.265h-.265z"/>
  </g>
  <path d="M1.587 3.44h.265v1.058h-.265zm5.028 0h.265v1.058h-.265zM2.91 8.202h2.646v.265H2.91zm0 0h1.058v-.265H2.91zm1.588 0h1.058v-.265H4.498z"/>
  <path d="M2.91 7.938h.529v-.265H2.91zm2.117 0h.529v-.265h-.529z"/>
</svg>
