<svg xmlns:vectornator="http://vectornator.io" xmlns="http://www.w3.org/2000/svg" viewBox="0 0 8.467 8.467">
  <path d="M7.938 7.673h.264v.264h-.264M4.498 7.673h.264v.264h-.264M4.233 7.673h.265v.264h-.265M3.969 7.673h.264v.264H3.97"/>
  <path d="M3.704 7.673h.265v.264h-.265M4.763 7.408h.264v.265h-.264M3.44 7.408h.264v.265H3.44M5.027 7.144h.265v.264h-.265M3.175 7.144h.265v.264h-.265M4.233 6.615h.265v.264h-.265M3.969 6.615h.264v.264H3.97M4.763 6.35h.264v.265h-.264M4.498 6.35h.264v.265h-.264M3.704 6.35h.265v.265h-.265M3.44 6.35h.264v.265H3.44M3.969 4.75v.281H4.5V4.75h-.531zM4.763 4.233h.264v.265h-.264M3.44 4.233h.264v.265H3.44M5.031 3.719v.25h.25v.25h.532v-.25h.28v-.25H5.032zM2.375 3.719v.25h.281v.25h.531v-.25h.25v-.25H2.375zM3.719 3.438v.78h.25v-.5H4.5v.5h.25v-.78H3.719z"/>
  <path d="M3.188.531v.25h-.532v.281h-.281v.25h-.25v.282h-.281v.531h-.25v.531h-.282V3.97h-.25v1.844h-.28v1.062h-.25v.813H.25v.25H0v.53h2.375v-.53h.281v-.532h.25v-.25h.281v-.812h.25v-.25h-.53v-.282h-.25v-.25h-.282V4.75h1.062V4.5H2.125v-.281h-.281v-.5h.281v-.281h1.594v-.25H2.656v-.282h.531v-.25h.532v-.281h.25v-.25h.25v-.531H4.5v.531h.25v.25h.281v.281h.532v.25h.53v.281H4.75v.25h1.593v.282h.282v.5h-.281V4.5H5.032v.25h1.062v.813h-.282v.25h-.25v.28h-.53v.25h.25V7.157h.28v.25h.25v.282h.282v.5h.25v.28h1.594v-.53h-.25v-.25h.25v-.282h-.25v-.531h-.282v-.781h-.25V2.906h-.281v-.781h-.25v-.531h-.281v-.282h-.25v-.25h-.532v-.28h-.53v-.25H3.187zm5 7.407v.53h.28v-.53h-.28z"/>
</svg>
