<svg xmlns="http://www.w3.org/2000/svg" viewBox="0 0 8.467 8.467">
  <path d="M8.202 8.202h.265v.265h-.265" fill="none"/>
  <path d="M2.646 5.82v1.589h-.529v.265h-.794v.265H.529v.264H.265v.265h7.937v-.265h-.264v-.264h-.794v-.265H6.35v-.265h-.529V5.821h-.265v.529h-.264v.265h.264v1.058h-.264v.265h-.529v.264H3.704v-.264h-.529v-.265H2.91V6.615h.265V6.35H2.91v-.529h-.264z"/>
  <path d="M0 8.202h.265v.265H0m8.202-.529h.265v.264h-.265m-.264-.264h.264v.264h-.264" stroke-width=".265" fill-opacity="0" fill="none"/>
  <g stroke-width=".265" fill-opacity="0" fill="none">
    <path d="M4.498 7.938h.264v.264h-.264m-.265-.264h.265v.264h-.265m-.264-.264h.264v.264H3.97M3.704 7.938h.265v.264h-.265"/>
  </g>
  <path d="M.265 7.938h.264v.264H.265M0 7.938h.265v.264H0m8.202-.529h.265v.264h-.265m-.264-.264h.264v.264h-.264m-.265-.264h.264v.264h-.264m-.265-.264h.265v.264h-.265m-.264-.264h.264v.264h-.264" stroke-width=".265" fill-opacity="0" fill="none"/>
  <g stroke-width=".265" fill-opacity="0" fill="none">
    <path d="M5.027 7.673h.265v.264h-.265m-.264-.264h.264v.264h-.265m-.264-.264h.264v.264h-.264m-.265-.264h.265v.264h-.265m-.264-.264h.264v.264H3.97M3.704 7.673h.265v.264h-.265m-.264-.264h.264v.264H3.44m-.265-.264h.265v.264h-.265"/>
  </g>
  <g stroke-width=".265" fill-opacity="0" fill="none">
    <path d="M1.058 7.673h.265v.264h-.265"/>
    <path d="M.794 7.673h.264v.264H.794M.53 7.673h.264v.264H.529m-.264-.264h.264v.264H.265M0 7.673h.265v.264H0m8.202-.529h.265v.265h-.265m-.264-.265h.264v.265h-.264m-.265-.265h.264v.265h-.264m-.265-.265h.265v.265h-.265m-.264-.265h.264v.265h-.264m-.264-.265h.264v.265h-.265m-.264-.265h.264v.265h-.264m-.265-.265h.265v.265H6.35"/>
  </g>
  <g stroke-width=".265" fill-opacity="0" fill="none">
    <path d="M5.292 7.408h.264v.265h-.264m-.265-.265h.265v.265h-.265m-.264-.265h.264v.265h-.265m-.264-.265h.264v.265h-.264m-.265-.265h.265v.265h-.265m-.264-.265h.264v.265H3.97M3.704 7.408h.265v.265h-.265m-.264-.265h.264v.265H3.44m-.265-.265h.265v.265h-.265"/>
    <path d="M2.91 7.408h.265v.265H2.91"/>
  </g>
  <g stroke-width=".265" fill-opacity="0" fill="none">
    <path d="M1.852 7.408h.265v.265h-.265m-.265-.265h.265v.265h-.265"/>
    <path d="M1.323 7.408h.264v.265h-.264m-.265-.265h.265v.265h-.265"/>
    <path d="M.794 7.408h.264v.265H.794M.53 7.408h.264v.265H.529m-.264-.265h.264v.265H.265M0 7.408h.265v.265H0m8.202-.529h.265v.264h-.265m-.264-.264h.264v.264h-.264m-.265-.264h.264v.264h-.264m-.265-.264h.265v.264h-.265m-.264-.264h.264v.264h-.264m-.264-.264h.264v.264h-.265m-.264-.264h.264v.264h-.264m-.265-.264h.265v.264H6.35m-.265-.264h.265v.264h-.265m-.265-.264h.265v.264h-.264m-.529-.264h.264v.264h-.264m-.265-.264h.265v.264h-.265m-.264-.264h.264v.264h-.265m-.264-.264h.264v.264h-.264m-.265-.264h.265v.264h-.265m-.264-.264h.264v.264H3.97M3.704 7.144h.265v.264h-.265m-.264-.264h.264v.264H3.44m-.265-.264h.265v.264h-.265"/>
    <path d="M2.91 7.144h.265v.264H2.91m-.529-.264h.265v.264H2.38"/>
    <path d="M2.117 7.144h.264v.264h-.264m-.265-.264h.265v.264h-.265m-.265-.264h.265v.264h-.265"/>
    <path d="M1.323 7.144h.264v.264h-.264m-.265-.264h.265v.264h-.265"/>
    <path d="M.794 7.144h.264v.264H.794M.53 7.144h.264v.264H.529m-.264-.264h.264v.264H.265M0 7.144h.265v.264H0m8.202-.528h.265v.264h-.265m-.264-.264h.264v.264h-.264m-.265-.264h.264v.264h-.264m-.265-.264h.265v.264h-.265m-.264-.264h.264v.264h-.264M6.88 6.88h.264v.264h-.265m-.264-.264h.264v.264h-.264M6.35 6.88h.265v.264H6.35m-.265-.264h.265v.264h-.265M5.82 6.88h.265v.264h-.264m-.529-.264h.264v.264h-.264m-.265-.264h.265v.264h-.265m-.264-.264h.264v.264h-.265"/>
  </g>
  <path d="M3.704 6.88v.264h1.058v-.265H3.704z"/>
  <g stroke-width=".265" fill-opacity="0" fill="none">
    <path d="M3.44 6.88h.264v.264H3.44m-.265-.264h.265v.264h-.265"/>
    <path d="M2.91 6.88h.265v.264H2.91m-.529-.264h.265v.264H2.38"/>
    <path d="M2.117 6.88h.264v.264h-.264m-.265-.264h.265v.264h-.265m-.265-.264h.265v.264h-.265"/>
    <path d="M1.323 6.88h.264v.264h-.264m-.265-.264h.265v.264h-.265"/>
    <path d="M.794 6.88h.264v.264H.794M.53 6.88h.264v.264H.529M.265 6.88h.264v.264H.265M0 6.88h.265v.264H0m8.202-.529h.265v.264h-.265m-.264-.264h.264v.264h-.264m-.265-.264h.264v.264h-.264m-.265-.264h.265v.264h-.265m-.264-.264h.264v.264h-.264m-.264-.264h.264v.264h-.265m-.264-.264h.264v.264h-.264m-.265-.264h.265v.264H6.35m-.265-.264h.265v.264h-.265m-.265-.264h.265v.264h-.264m-.529-.264h.264v.264h-.264"/>
  </g>
  <path d="M4.762 6.614v.265h.53v-.265h-.53z"/>
  <g stroke-width=".265" fill-opacity="0" fill="none">
    <path d="M4.498 6.615h.264v.264h-.264m-.265-.264h.265v.264h-.265m-.264-.264h.264v.264H3.97M3.704 6.615h.265v.264h-.265"/>
  </g>
  <path d="M3.175 6.614v.265h.529v-.265h-.529z"/>
  <g stroke-width=".265" fill-opacity="0" fill="none">
    <path d="M2.91 6.615h.265v.264H2.91m-.529-.264h.265v.264H2.38"/>
    <path d="M2.117 6.615h.264v.264h-.264m-.265-.264h.265v.264h-.265m-.265-.264h.265v.264h-.265"/>
    <path d="M1.323 6.615h.264v.264h-.264m-.265-.264h.265v.264h-.265"/>
    <path d="M.794 6.615h.264v.264H.794M.53 6.615h.264v.264H.529m-.264-.264h.264v.264H.265M0 6.615h.265v.264H0m8.202-.529h.265v.265h-.265m-.264-.265h.264v.265h-.264m-.265-.265h.264v.265h-.264m-.265-.265h.265v.265h-.265m-.264-.265h.264v.265h-.264M6.88 6.35h.264v.265h-.265m-.264-.265h.264v.265h-.264M6.35 6.35h.265v.265H6.35m-.265-.265h.265v.265h-.265M5.82 6.35h.265v.265h-.264m-.794-.265h.265v.265h-.265m-.264-.265h.264v.265h-.265m-.264-.265h.264v.265h-.264m-.265-.265h.265v.265h-.265m-.264-.265h.264v.265H3.97"/>
    <path d="M3.704 6.35h.265v.265h-.265M3.44 6.35h.264v.265H3.44m-.265-.265h.265v.265h-.265m-.794-.265h.265v.265H2.38"/>
    <path d="M2.117 6.35h.264v.265h-.264m-.265-.265h.265v.265h-.265m-.265-.265h.265v.265h-.265"/>
    <path d="M1.323 6.35h.264v.265h-.264m-.265-.265h.265v.265h-.265"/>
    <path d="M.794 6.35h.264v.265H.794M.53 6.35h.264v.265H.529M.265 6.35h.264v.265H.265M0 6.35h.265v.265H0m8.202-.53h.265v.265h-.265m-.264-.265h.264v.265h-.264m-.265-.265h.264v.265h-.264m-.265-.265h.265v.265h-.265m-.264-.265h.264v.265h-.264m-.264-.265h.264v.265h-.265m-.264-.265h.264v.265h-.264m-.265-.265h.265v.265H6.35m-.265-.265h.265v.265h-.265m-.265-.265h.265v.265h-.264m-.529-.265h.264v.265h-.264m-.265-.265h.265v.265h-.265m-.264-.265h.264v.265h-.265m-.264-.265h.264v.265h-.264m-.265-.265h.265v.265h-.265m-.264-.265h.264v.265H3.97M3.704 6.085h.265v.265h-.265m-.264-.265h.264v.265H3.44m-.265-.265h.265v.265h-.265"/>
    <path d="M2.91 6.085h.265v.265H2.91m-.529-.265h.265v.265H2.38"/>
    <path d="M2.117 6.085h.264v.265h-.264m-.265-.265h.265v.265h-.265m-.265-.265h.265v.265h-.265"/>
    <path d="M1.323 6.085h.264v.265h-.264m-.265-.265h.265v.265h-.265"/>
    <path d="M.794 6.085h.264v.265H.794M.53 6.085h.264v.265H.529m-.264-.265h.264v.265H.265M0 6.085h.265v.265H0m8.202-.53h.265v.265h-.265m-.264-.265h.264v.265h-.264m-.265-.265h.264v.265h-.264m-.265-.265h.265v.265h-.265m-.264-.265h.264v.265h-.264M6.88 5.82h.264v.265h-.265m-.264-.265h.264v.265h-.264M6.35 5.82h.265v.265H6.35m-.265-.265h.265v.265h-.265M5.82 5.82h.265v.265h-.264m-.529-.265h.264v.265h-.264m-.265-.265h.265v.265h-.265m-.264-.265h.264v.265h-.265m-.264-.265h.264v.265h-.264m-.265-.265h.265v.265h-.265m-.264-.265h.264v.265H3.97M3.704 5.82h.265v.265h-.265M3.44 5.82h.264v.265H3.44m-.265-.265h.265v.265h-.265"/>
    <path d="M2.91 5.82h.265v.265H2.91m-.529-.265h.265v.265H2.38"/>
    <path d="M2.117 5.82h.264v.265h-.264m-.265-.265h.265v.265h-.265m-.265-.265h.265v.265h-.265"/>
    <path d="M1.323 5.82h.264v.265h-.264m-.265-.265h.265v.265h-.265"/>
    <path d="M.794 5.82h.264v.265H.794M.53 5.82h.264v.265H.529M.265 5.82h.264v.265H.265M0 5.82h.265v.265H0m8.202-.529h.265v.265h-.265m-.264-.265h.264v.265h-.264m-.265-.265h.264v.265h-.264m-.265-.265h.265v.265h-.265m-.264-.265h.264v.265h-.264m-.264-.265h.264v.265h-.265m-.264-.265h.264v.265h-.264m-.265-.265h.265v.265H6.35m-.265-.265h.265v.265h-.265"/>
  </g>
  <path d="M2.646.265v.264h-.794v.265h-.264v.529h.264v.265h-.264v.264h-.53V2.91h.265v-.264h.265v-.529h.264v.529h-.264v.264h.264v.265h-.264V2.91h-.265v.53h.265v.264h.264v1.059h.265v-.794h.264v.794h-.264v.264h.264v.794h.265V3.704h.264V3.44h.265v-.53h.265v-.264h1.058v.264h.529v.265h.265v.265h.264v.264h.265v2.117h.264v-.794h.265v-.264h-.265V3.704h.265V3.44h-.265v-.265h.265v-.529h.265v.529h.264v.265h.265v-.794h.264V2.38h-.264v-.264h-.265v-.529h-.264v.264h-.53v.265h-.264v-.265h.264v-.264h.53v-.53h.264V.794h-.264V.529H6.35v.265h-.265V.529h-.529v.265h-.264v.264h-.265V.53h-.264v.265h-.265V.529h.265V.265h-.53v.264h-.529v.265H3.44V.265h-.265v.264H2.91V.265h-.264zM2.38.794h.529v.264H2.38v.53h-.264v-.53h.264V.794zm.265.529h.794v.265h-.53v.264h-.264v-.529zm1.058 0h.265v.265h-.265v-.265zm1.059 0h.264v.265h-.264v-.265zm.793 0h.265v.265h-.265v-.265zm-1.852.53h.265v.264h-.265v.264H3.44v-.264h.264v-.265zm.794.264h.265v.264h-.265v-.264zm1.058.264h.265v.265h-.265v.264h-.264v-.264h.264V2.38zm-3.175.265h.529v.264H2.38v.265h-.264V2.91h.264v-.264z"/>
  <path d="M5.556 5.556h.265v.265h-.265m-.264-.265h.264v.265h-.264m-.265-.265h.265v.265h-.265m-.264-.265h.264v.265h-.265m-.264-.265h.264v.265h-.264" stroke-width=".265" fill-opacity="0" fill="none"/>
  <path d="M3.969 5.556v.265h.529v-.265h-.529z"/>
  <g stroke-width=".265" fill-opacity="0" fill="none">
    <path d="M3.704 5.556h.265v.265h-.265m-.264-.265h.264v.265H3.44m-.265-.265h.265v.265h-.265"/>
    <path d="M2.91 5.556h.265v.265H2.91m-.264-.265h.264v.265h-.264"/>
  </g>
  <g stroke-width=".265" fill-opacity="0" fill="none">
    <path d="M2.117 5.556h.264v.265h-.264m-.265-.265h.265v.265h-.265m-.265-.265h.265v.265h-.265"/>
    <path d="M1.323 5.556h.264v.265h-.264m-.265-.265h.265v.265h-.265"/>
    <path d="M.794 5.556h.264v.265H.794M.53 5.556h.264v.265H.529m-.264-.265h.264v.265H.265M0 5.556h.265v.265H0m8.202-.529h.265v.264h-.265m-.264-.264h.264v.264h-.264m-.265-.264h.264v.264h-.264m-.265-.264h.265v.264h-.265m-.264-.264h.264v.264h-.264m-.264-.264h.264v.264h-.265m-.264-.264h.264v.264h-.264m-.265-.264h.265v.264H6.35m-.265-.264h.265v.264h-.265m-.529-.264h.265v.264h-.265m-.264-.264h.264v.264h-.264m-.265-.264h.265v.264h-.265m-.264-.264h.264v.264h-.265"/>
  </g>
  <g stroke-width=".265">
    <path d="M4.498 5.292h.264v.264h-.264"/>
    <path d="M4.233 5.292h.265v.264h-.265m-.264-.264h.264v.264H3.97" fill="none"/>
    <path d="M3.704 5.292h.265v.264h-.265"/>
  </g>
  <g stroke-width=".265" fill-opacity="0" fill="none">
    <path d="M3.44 5.292h.264v.264H3.44m-.265-.264h.265v.264h-.265"/>
    <path d="M2.91 5.292h.265v.264H2.91m-.264-.264h.264v.264h-.264m-.529-.264h.264v.264h-.264m-.265-.264h.265v.264h-.265m-.265-.264h.265v.264h-.265"/>
    <path d="M1.323 5.292h.264v.264h-.264m-.265-.264h.265v.264h-.265"/>
    <path d="M.794 5.292h.264v.264H.794M.53 5.292h.264v.264H.529m-.264-.264h.264v.264H.265M0 5.292h.265v.264H0m8.202-.529h.265v.265h-.265m-.264-.265h.264v.265h-.264m-.265-.265h.264v.265h-.264m-.265-.265h.265v.265h-.265m-.264-.265h.264v.265h-.264m-.264-.265h.264v.265h-.265m-.264-.265h.264v.265h-.264m-.265-.265h.265v.265H6.35m-.265-.265h.265v.265h-.265m-.529-.265h.265v.265h-.265m-.264-.265h.264v.265h-.264m-.265-.265h.265v.265h-.265m-.264-.265h.264v.265h-.265m-.264-.265h.264v.265h-.264m-.265-.265h.265v.265h-.265m-.264-.265h.264v.265H3.97M3.704 5.027h.265v.265h-.265m-.264-.265h.264v.265H3.44m-.265-.265h.265v.265h-.265"/>
    <path d="M2.91 5.027h.265v.265H2.91m-.264-.265h.264v.265h-.264m-.529-.265h.264v.265h-.264m-.265-.265h.265v.265h-.265m-.265-.265h.265v.265h-.265"/>
    <path d="M1.323 5.027h.264v.265h-.264m-.265-.265h.265v.265h-.265"/>
    <path d="M.794 5.027h.264v.265H.794M.53 5.027h.264v.265H.529m-.264-.265h.264v.265H.265M0 5.027h.265v.265H0m8.202-.529h.265v.264h-.265m-.264-.264h.264v.264h-.264m-.265-.264h.264v.264h-.264m-.265-.264h.265v.264h-.265m-.264-.264h.264v.264h-.264m-.264-.264h.264v.264h-.265m-.264-.264h.264v.264h-.264m-.265-.264h.265v.264H6.35m-.794-.264h.265v.264h-.265m-.264-.264h.264v.264h-.264m-.265-.264h.265v.264h-.265m-.264-.264h.264v.264h-.265m-.264-.264h.264v.264h-.264m-.265-.264h.265v.264h-.265m-.264-.264h.264v.264H3.97"/>
    <path d="M3.704 4.763h.265v.264h-.265m-.264-.264h.264v.264H3.44m-.265-.264h.265v.264h-.265"/>
    <path d="M2.91 4.763h.265v.264H2.91m-.264-.264h.264v.264h-.264m-.794-.264h.265v.264h-.265m-.265-.264h.265v.264h-.265"/>
    <path d="M1.323 4.763h.264v.264h-.264m-.265-.264h.265v.264h-.265"/>
    <path d="M.794 4.763h.264v.264H.794M.53 4.763h.264v.264H.529m-.264-.264h.264v.264H.265M0 4.763h.265v.264H0m8.202-.529h.265v.264h-.265m-.264-.264h.264v.264h-.264m-.265-.264h.264v.264h-.264m-.265-.264h.265v.264h-.265m-.264-.264h.264v.264h-.264m-.264-.264h.264v.264h-.265m-.264-.264h.264v.264h-.264"/>
  </g>
  <path d="M6.35 3.704v1.058h.264V3.704H6.35z"/>
  <path d="M6.085 4.498h.265v.264h-.265m-.529-.264h.265v.264h-.265m-.264-.264h.264v.264h-.264" stroke-width=".265" fill-opacity="0" fill="none"/>
  <path d="M4.498 3.969v.529h.264v.264h.53v-.264h.264v-.265h-.794V3.97h-.264z"/>
  <g stroke-width=".265" fill-opacity="0" fill="none">
    <path d="M4.498 4.498h.264v.264h-.264m-.265-.264h.265v.264h-.265m-.264-.264h.264v.264H3.97M3.704 4.498h.265v.264h-.265"/>
  </g>
  <path d="M3.704 3.969v.264H2.91v.265h.265v.264h.529v-.264h.265v-.529h-.265z"/>
  <g stroke-width=".265" fill-opacity="0" fill="none">
    <path d="M2.91 4.498h.265v.264H2.91m-.264-.264h.264v.264h-.264m-.529-.264h.264v.264h-.264m-.53-.264h.265v.264h-.265"/>
    <path d="M1.323 4.498h.264v.264h-.264m-.265-.264h.265v.264h-.265"/>
    <path d="M.794 4.498h.264v.264H.794M.53 4.498h.264v.264H.529m-.264-.264h.264v.264H.265M0 4.498h.265v.264H0m8.202-.529h.265v.265h-.265m-.264-.265h.264v.265h-.264m-.265-.265h.264v.265h-.264m-.265-.265h.265v.265h-.265m-.264-.265h.264v.265h-.264m-.264-.265h.264v.265h-.265m-.264-.265h.264v.265h-.264m-.53-.265h.265v.265h-.265m-.529-.265h.265v.265h-.265m-1.323-.265h.265v.265h-.265m-.264-.265h.264v.265H3.97m-1.324-.265h.264v.265h-.264m-.529-.265h.264v.265h-.264m-.53-.265h.265v.265h-.265"/>
    <path d="M1.323 4.233h.264v.265h-.264m-.265-.265h.265v.265h-.265"/>
    <path d="M.794 4.233h.264v.265H.794M.53 4.233h.264v.265H.529m-.264-.265h.264v.265H.265M0 4.233h.265v.265H0m8.202-.529h.265v.264h-.265m-.264-.264h.264v.264h-.264m-.265-.264h.264v.264h-.264m-.265-.264h.265v.264h-.265m-.264-.264h.264v.264h-.264m-.264-.264h.264v.264h-.265m-.264-.264h.264v.264h-.264m-.53-.264h.265v.264h-.265m-.529-.264h.265v.264h-.265m-.264-.264h.264v.264h-.264m-.265-.264h.265v.264h-.265m-.264-.264h.264v.264h-.265m-.529-.264h.265v.264h-.265m-.264-.264h.264v.264H3.97m-.53-.264h.264v.264H3.44m-.265-.264h.265v.264h-.265"/>
    <path d="M2.91 3.969h.265v.264H2.91m-.264-.264h.264v.264h-.264m-.529-.264h.264v.264h-.264m-.53-.264h.265v.264h-.265"/>
    <path d="M1.323 3.969h.264v.264h-.264m-.265-.264h.265v.264h-.265"/>
    <path d="M.794 3.969h.264v.264H.794M.53 3.969h.264v.264H.529m-.264-.264h.264v.264H.265M0 3.969h.265v.264H0m8.202-.529h.265v.265h-.265m-.264-.265h.264v.265h-.264m-.265-.265h.264v.265h-.264m-.265-.265h.265v.265h-.265m-.264-.265h.264v.265h-.264m-.264-.265h.264v.265h-.265m-.264-.265h.264v.265h-.264m-.53-.265h.265v.265h-.265m-.529-.265h.265v.265h-.265m-.264-.265h.264v.265h-.264"/>
  </g>
  <path d="M4.762 3.704v.265h.53v-.265h-.53z"/>
  <g stroke-width=".265" fill-opacity="0" fill="none">
    <path d="M4.498 3.704h.264v.265h-.264m-.265-.265h.265v.265h-.265m-.264-.265h.264v.265H3.97M3.704 3.704h.265v.265h-.265"/>
  </g>
  <path d="M3.175 3.704v.265h.529v-.265h-.529z"/>
  <g stroke-width=".265" fill-opacity="0" fill="none">
    <path d="M2.91 3.704h.265v.265H2.91m-.264-.265h.264v.265h-.264m-1.059-.265h.265v.265h-.265"/>
    <path d="M1.323 3.704h.264v.265h-.264"/>
  </g>
  <path d="M1.058 3.44v.529h.265V3.44h-.265z"/>
  <path d="M.794 3.704h.264v.265H.794M.53 3.704h.264v.265H.529m-.264-.265h.264v.265H.265M0 3.704h.265v.265H0m8.202-.529h.265v.264h-.265m-.264-.264h.264v.264h-.264m-.265-.264h.264v.264h-.264" stroke-width=".265" fill-opacity="0" fill="none"/>
  <path d="M7.144 3.44v.264h.529V3.44h-.529z"/>
  <path d="M6.88 3.44h.264v.264h-.265" fill="none"/>
  <path d="M6.615 3.44h.264v.264h-.264"/>
  <g stroke-width=".265" fill-opacity="0" fill="none">
    <path d="M6.35 3.44h.265v.264H6.35M5.292 3.44h.264v.264h-.264m-.265-.264h.265v.264h-.265m-.264-.264h.264v.264h-.265m-.264-.264h.264v.264h-.264m-.265-.264h.265v.264h-.265m-.264-.264h.264v.264H3.97M3.704 3.44h.265v.264h-.265M3.44 3.44h.264v.264H3.44m-.265-.264h.265v.264h-.265"/>
    <path d="M2.91 3.44h.265v.264H2.91M1.323 3.44h.264v.264h-.264M.794 3.44h.264v.264H.794M.53 3.44h.264v.264H.529M.265 3.44h.264v.264H.265M0 3.44h.265v.264H0m8.202-.529h.265v.265h-.265m-.264-.265h.264v.265h-.264m-.265-.265h.264v.265h-.264m-.265-.265h.265v.265h-.265m-.264-.265h.264v.265h-.264m-.529-.265h.264v.265h-.264"/>
  </g>
  <path d="M6.35 3.175h.265v.265H6.35"/>
  <g stroke-width=".265" fill-opacity="0" fill="none">
    <path d="M6.085 3.175h.265v.265h-.265m-1.058-.265h.265v.265h-.265m-.264-.265h.264v.265h-.265m-.264-.265h.264v.265h-.264m-.265-.265h.265v.265h-.265m-.264-.265h.264v.265H3.97M3.704 3.175h.265v.265h-.265m-.264-.265h.264v.265H3.44m-.265-.265h.265v.265h-.265m-2.117-.265h.265v.265h-.265"/>
    <path d="M.794 3.175h.264v.265H.794M.53 3.175h.264v.265H.529m-.264-.265h.264v.265H.265M0 3.175h.265v.265H0m8.202-.53h.265v.265h-.265m-.264-.265h.264v.265h-.264m-.265-.265h.264v.265h-.264m-.265-.265h.265v.265h-.265m-.264-.265h.264v.265h-.264M6.35 2.91h.265v.265H6.35M4.763 2.91h.264v.265h-.265m-.264-.265h.264v.265h-.264m-.265-.265h.265v.265h-.265m-.264-.265h.264v.265H3.97"/>
    <path d="M3.704 2.91h.265v.265h-.265M3.44 2.91h.264v.265H3.44m-.265-.265h.265v.265h-.265M2.117 2.91h.264v.265h-.264m-.53-.265h.265v.265h-.265m-.529-.265h.265v.265h-.265"/>
    <path d="M.794 2.91h.264v.265H.794M.53 2.91h.264v.265H.529M.265 2.91h.264v.265H.265M0 2.91h.265v.265H0m8.202-.529h.265v.264h-.265m-.264-.264h.264v.264h-.264m-.265-.264h.264v.264h-.264m-.265-.264h.265v.264h-.265m-.264-.264h.264v.264h-.264m-.794-.264h.265v.264H6.35m-1.058-.264h.264v.264h-.264m-1.059-.264h.265v.264h-.265m-.264-.264h.264v.264H3.97"/>
    <path d="M3.704 2.646h.265v.264h-.265m-.264-.264h.264v.264H3.44m-.794-.264h.264v.264h-.264m-.265-.264h.265v.264H2.38m-1.057-.264h.264v.264h-.264m-.529-.264h.264v.264H.794M.53 2.646h.264v.264H.529m-.264-.264h.264v.264H.265M0 2.646h.265v.264H0m8.202-.529h.265v.265h-.265m-.264-.265h.264v.265h-.264m-.265-.265h.264v.265h-.264m-.265-.265h.265v.265h-.265m-1.852-.265h.265v.265h-.265m-3.969-.265h.265v.265h-.265m-.793-.265h.264v.265H.794M.53 2.381h.264v.265H.529m-.264-.265h.264v.265H.265M0 2.381h.265v.265H0"/>
    <path d="M8.202 2.117h.265v.264h-.265m-.264-.264h.264v.264h-.264m-.265-.264h.264v.264h-.264m-.265-.264h.265v.264h-.265m-.264-.264h.264v.264h-.264m-2.646-.264h.264v.264h-.264M3.44 2.117h.264v.264H3.44m-1.853-.264h.265v.264h-.265m-.793-.264h.264v.264H.794M.53 2.117h.264v.264H.529m-.264-.264h.264v.264H.265M0 2.117h.265v.264H0m8.202-.529h.265v.265h-.265m-.264-.265h.264v.265h-.264m-.265-.265h.264v.265h-.264m-.265-.265h.265v.265h-.265"/>
  </g>
  <path d="M7.144 1.852h.264v.265h-.264"/>
  <path d="M6.88 1.852h.264v.265h-.265M5.82 1.852h.265v.265h-.264m-2.117-.265h.265v.265h-.265m-2.91-.265h.264v.265H.794M.53 1.852h.264v.265H.529m-.264-.265h.264v.265H.265M0 1.852h.265v.265H0m8.202-.53h.265v.265h-.265m-.264-.265h.264v.265h-.264m-.265-.265h.264v.265h-.264m-.265-.265h.265v.265h-.265m-.264-.265h.264v.265h-.264m-.264-.265h.264v.265h-.265m-.529-.265h.265v.265H6.35m-.265-.265h.265v.265h-.265m-3.439-.265h.264v.265h-.264m-1.323-.265h.264v.265h-.264m-.265-.265h.265v.265h-.265" stroke-width=".265" fill-opacity="0" fill="none"/>
  <path d="M.794 1.587h.264v.265H.794"/>
  <path d="M.53 1.587h.264v.265H.529m-.264-.265h.264v.265H.265M0 1.587h.265v.265H0m8.202-.529h.265v.264h-.265m-.264-.264h.264v.264h-.264m-.265-.264h.264v.264h-.264m-.265-.264h.265v.264h-.265m-.264-.264h.264v.264h-.264" stroke-width=".265" fill-opacity="0" fill="none"/>
  <path d="M6.88 1.058v.529h.264v-.529h-.265z"/>
  <g stroke-width=".265" fill-opacity="0" fill="none">
    <path d="M6.615 1.323h.264v.264h-.264m-1.059-.264h.265v.264h-.265m-.793-.264h.264v.264h-.265m-1.058-.264h.265v.264h-.265m-.529-.264h.265v.264h-.265M2.91 1.323h.265v.264H2.91m-.264-.264h.264v.264h-.264m-.529-.264h.264v.264h-.264m-.53-.264h.265v.264h-.265"/>
  </g>
  <path d="M1.323 1.323h.264v.264h-.264"/>
  <g stroke-width=".265" fill-opacity="0" fill="none">
    <path d="M1.058 1.323h.265v.264h-.265"/>
    <path d="M.794 1.323h.264v.264H.794M.53 1.323h.264v.264H.529m-.264-.264h.264v.264H.265M0 1.323h.265v.264H0m8.202-.529h.265v.265h-.265m-.264-.265h.264v.265h-.264m-.265-.265h.264v.265h-.264m-.265-.265h.265v.265h-.265m-.264-.265h.264v.265h-.264m-.529-.265h.264v.265h-.264m-4.498-.265h.264v.265h-.264m-.794-.265h.264v.265h-.264m-.265-.265h.265v.265h-.265"/>
    <path d="M.794 1.058h.264v.265H.794M.53 1.058h.264v.265H.529m-.264-.265h.264v.265H.265M0 1.058h.265v.265H0M8.202.794h.265v.264h-.265M7.938.794h.264v.264h-.264M7.673.794h.264v.264h-.264M7.408.794h.265v.264h-.265M7.144.794h.264v.264h-.264M6.88.794h.264v.264h-.265M5.027.794h.265v.264h-.265M2.646.794h.264v.264h-.264M2.381.794h.265v.264H2.38M1.323.794h.264v.264h-.264M1.058.794h.265v.264h-.265"/>
    <path d="M.794.794h.264v.264H.794M.53.794h.264v.264H.529M.265.794h.264v.264H.265M0 .794h.265v.264H0M8.202.53h.265v.264h-.265M7.938.53h.264v.264h-.264M7.673.53h.264v.264h-.264M7.408.53h.265v.264h-.265M7.144.53h.264v.264h-.264"/>
  </g>
  <path d="M6.88.265v.529h.264V.265h-.265z"/>
  <g stroke-width=".265" fill-opacity="0" fill="none">
    <path d="M6.615.53h.264v.264h-.264M6.085.53h.265v.264h-.265M5.292.53h.264v.264h-.264M5.027.53h.265v.264h-.265M4.498.53h.264v.264h-.264M3.44.53h.264v.264H3.44M1.587.53h.265v.264h-.265"/>
    <path d="M1.323.53h.264v.264h-.264M1.058.53h.265v.264h-.265"/>
    <path d="M.794.53h.264v.264H.794M.53.53h.264v.264H.529M.265.53h.264v.264H.265M0 .53h.265v.264H0M8.202.265h.265v.264h-.265M7.938.265h.264v.264h-.264M7.673.265h.264v.264h-.264M7.408.265h.265v.264h-.265M7.144.265h.264v.264h-.264M6.615.265h.264v.264h-.264M6.35.265h.265v.264H6.35"/>
  </g>
  <g stroke-width=".265">
    <path d="M6.085.265h.265v.264h-.265"/>
    <path d="M5.82.265h.265v.264h-.264" fill="none"/>
    <path d="M5.556.265h.265v.264h-.265" fill="none"/>
  </g>
  <path d="M5.027.265v.264h.529V.265h-.529z"/>
  <g stroke-width=".265" fill-opacity="0" fill="none">
    <path d="M4.763.265h.264v.264h-.265M3.969.265h.264v.264H3.97"/>
    <path d="M3.704.265h.265v.264h-.265M3.44.265h.264v.264H3.44M2.91.265h.265v.264H2.91M2.381.265h.265v.264H2.38"/>
    <path d="M2.117.265h.264v.264h-.264M1.852.265h.265v.264h-.265M1.587.265h.265v.264h-.265"/>
    <path d="M1.323.265h.264v.264h-.264M1.058.265h.265v.264h-.265"/>
    <path d="M.794.265h.264v.264H.794M.53.265h.264v.264H.529M.265.265h.264v.264H.265M0 .265h.265v.264H0M8.202 0h.265v.265h-.265M7.938 0h.264v.265h-.264M7.673 0h.264v.265h-.264M7.408 0h.265v.265h-.265M7.144 0h.264v.265h-.264M6.88 0h.264v.265h-.265M6.615 0h.264v.265h-.264M6.35 0h.265v.265H6.35M6.085 0h.265v.265h-.265"/>
  </g>
  <path d="M5.82 0h.265v.265h-.264"/>
  <path d="M5.556 0h.265v.265h-.265M5.292 0h.264v.265h-.264M5.027 0h.265v.265h-.265M4.763 0h.264v.265h-.265M4.498 0h.264v.265h-.264M4.233 0h.265v.265h-.265" stroke-width=".265" fill-opacity="0" fill="none"/>
  <path d="M3.44 0v.265h.793V0H3.44z"/>
  <g stroke-width=".265" fill-opacity="0" fill="none">
    <path d="M3.175 0h.265v.265h-.265"/>
    <path d="M2.91 0h.265v.265H2.91M2.646 0h.264v.265h-.264"/>
  </g>
  <path d="M2.381 0h.265v.265H2.38"/>
  <g stroke-width=".265" fill-opacity="0" fill="none">
    <path d="M2.117 0h.264v.265h-.264M1.852 0h.265v.265h-.265M1.587 0h.265v.265h-.265"/>
    <path d="M1.323 0h.264v.265h-.264M1.058 0h.265v.265h-.265"/>
    <path d="M.794 0h.264v.265H.794M.53 0h.264v.265H.529M.265 0h.264v.265H.265M0 0h.265v.265H0"/>
  </g>
</svg>
