<svg shape-rendering="crispEdges" viewBox="0 0 8.467 8.467" xmlns="http://www.w3.org/2000/svg">
  <path fill="#ffda00" d="M0 0h8.467v8.467H0z"/>
  <path d="M2.117 3.44h.265v2.91h-.265zm3.968 0h.265v2.91h-.265zM3.704 7.408h1.058v-.529H3.704z"/>
  <path d="M4.763 7.144h.794v-.529h-.794zm.529-.529h.794v-.529h-.794zm-2.382.529h.794v-.529H2.91zm-.529-.529h.794v-.529h-.794zm1.588.264h.529V6.35h-.529zm-.265-.529h1.058v-.265H3.704z"/>
  <path d="M2.91 6.35h.529v-.794H2.91zm2.117 0h.529v-.794h-.529zM3.44 5.821h1.587v-.265H3.44zM1.852 1.323H2.91v1.323H1.852zm.794 2.91h1.058v-.265H2.646zm2.117-.264h1.058v.265H4.763z"/>
  <path d="M2.91 4.498h.794v-.265H2.91zm1.853-.265h.794v.265h-.794zM2.91.794h2.91v1.058H2.91zm2.911.793h.794v1.852h-.794zm-2.646.265h2.381v.265H3.175zm.265.265h2.117v.265H3.44z"/>
  <path d="M3.969 2.381h1.587v.265H3.969zm.529.265h1.058v.265H4.498zm1.323-1.588h.529v.529h-.529zm-3.704 0h.794v.804h-.794zm3.439.794h.265v1.323h-.265zm-3.704.794h.794v.794h-.794zm-.265.794h.265v1.058h-.265zm.265 1.058h.265v.265h-.265zM6.615 3.44h.265v1.058h-.265zM6.35 4.498h.265v.265H6.35zM3.44 5.556h.529v-.265H3.44zm1.058 0h.529v-.265h-.529zM3.175.529h2.117v.265H3.175zm-.794 6.086h.265v1.058h-.265zm3.44 0h.265v1.058h-.265zM1.587 1.587h.265v1.587h-.265zm-.529 6.086h1.587v.265H1.058zm-.529.265h.529v.265H.529zM0 8.202h.529v.265H0zm5.821-.529h1.587v.265H5.821zm1.587.265h.529v.265h-.529zm.53.264h.529v.265h-.529zM2.91 7.408h.529v.265H2.91zm2.646-.264h.265v.265h-.265zm-.529.264h.529v.265h-.529zm-1.587.53h1.587v-.265H3.44zm-1.059 0h.265v.529h-.265zm3.44 0h.265v.529h-.265zm-3.175.264h.529v.265h-.529zm3.969-6.085h.265v1.058h-.265zM6.35 3.44h.265v.529H6.35zM2.381 5.027h.265v1.058h-.265zm3.44 0h.265v1.058h-.265z"/>
  <path d="M2.646 7.144h.265v.265h-.265zm.529.794h.265v.265h-.265zm1.852 0h.265v.265h-.265zm.265.264h.529v.265h-.529zm-1.588-.264h1.058v.265H3.704z"/>
  <path d="M3.704 8.202h1.058v.265H3.704z"/>
</svg>
