<svg xmlns="http://www.w3.org/2000/svg" viewBox="0 0 8.467 8.467" shape-rendering="crispEdges">
  <path fill="#ffda00" d="M0 0h8.467v8.467H0z"/>
  <path d="M2.117 5.821h.265V3.969h-.265zm3.968 0h.265V3.969h-.265zm-3.704.529h.265v-.529h-.265zm3.44 0h.265v-.529h-.265zm-1.058.265v.265h.529v-.265zm-1.588 0v.265h.529v-.265zm.529.264v.265h1.058v-.265zM2.646 6.35v.265h.529V6.35zm2.646 0v.265h.529V6.35zM3.969 5.292v.265h.529v-.265z"/>
  <path d="M3.969 6.615v.265h.529v-.265zM2.646 3.969v.265h.794v-.265zm2.381 0v.265h.794v-.265zm-2.381.793v.265h1.058v-.265zm0-1.322v.265h1.058V3.44zm1.058 1.323h.265V3.705h-.265zm.794 0h.265V3.705h-.265zm.264-1.323v.265H5.82V3.44zm0 1.323v.265H5.82v-.265zM2.91 6.615h.265v-.529H2.91zm2.382 0h.265v-.529h-.265z"/>
  <path d="M2.91 4.233v.265h.529v-.265zm2.117 0v.265h.529v-.265zM3.44 6.35v.265h.265V6.35zm1.323 0v.265h.265V6.35zm.793-.794v.265h.265v-.265zm-2.91 0v.265h.265v-.265zm1.323-1.852v.265h.265v-.265z"/>
  <path d="M4.233 3.704v.265h.265v-.265zm-.529 1.852v.265h.265v-.265zm.794 0v.265h.265v-.265zm-1.323.265v.265h.265v-.265zm1.852 0v.265h.265v-.265z"/>
  <path d="M3.44 5.556v.265h.265v-.265zm1.323 0v.265h.265v-.265zM2.381 4.498v.265h.265v-.265zm3.44 0v.265h.265v-.265zm-4.234.529h.265V3.969h-.265zm5.028 0h.265V3.969h-.265zm-4.763 0v.265h.265v-.265zm4.498 0v.265h.265v-.265zM3.44 3.175v.265h1.587v-.265zm-1.059.265v.265h1.058V3.44zm2.646 0v.265h1.058V3.44z"/>
  <path d="M2.117 3.704v.265h.265v-.265zm3.968 0v.265h.265v-.265zM3.704 3.44v.265h1.058V3.44zm-2.117.264h.265V2.117h-.265zm5.028 0h.265V2.117h-.265zM1.852 2.117h.265v-.794h-.265zm4.498 0h.265v-.794H6.35zM3.44.529v.265h1.587V.529zm-.794.265v.265h.794V.794zm2.381 0v.265h.794V.794zm-3.175 2.91v.265h.265v-.265zm4.498 0v.265h.265v-.265zM2.117 1.058v.265h.529v-.265zm3.704 0v.265h.529v-.265z"/>
  <path d="M1.588 3.704v.265h.265v-.265zm5.027 0v.265h.265v-.265zm.264.529v.265h.265v-.265zM6.35 5.292v.265h.265v-.265zm.265.264v.265h.265v-.265zm.264-.529v.265h.265v-.265zm-5.027.265v.265h.265v-.265z"/>
  <path d="M1.588 5.556v.265h.265v-.265zm0-.529v.265h.265v-.265zm-.265-.794v.265h.265v-.265zm2.646 0v.265h.529v-.265zM3.44 2.117v.265h1.587v-.265zm-1.059.264v.265h1.058v-.265zm2.646 0v.265h1.058v-.265zm-2.91.265v.265h.265v-.265zm-.265.264v.265h.265V2.91zm4.233-.264v.265h.265v-.265zm.265.264v.265h.265V2.91zM1.852 3.969v.265h.265v-.265zm4.498 0v.265h.265v-.265zM2.381 7.408h.265V6.35h-.265zm3.44 0h.265V6.35h-.265zm-3.969 0v.265H.794v.264H.529v.265H.265v.265h7.937v-.265h-.265v-.265h-.264v-.264H6.615v-.265H5.292v.265h-.53v.264H3.704v-.264h-.529v-.265H1.852z"/>
</svg>
